<?xml version="1.0" standalone="no"?>
<!DOCTYPE svg PUBLIC "-//W3C//DTD SVG 1.1//EN" "http://www.w3.org/Graphics/SVG/1.1/DTD/svg11.dtd" >
<svg>
<metadata>
Created by FontForge 20090622 at Fri Sep 23 09:33:12 2016
 By deploy user
Copyright (c) Boutros International, 2004. All rights reserved.
</metadata>
<defs>
<font id="GESSTextMedium-Medium" horiz-adv-x="0" >
  <font-face 
    font-family="GE SS Text Medium"
    font-weight="500"
    font-stretch="normal"
    units-per-em="1000"
    panose-1="2 10 5 3 2 1 2 2 2 4"
    ascent="800"
    descent="-200"
    bbox="-114 -393 1280 989"
    underline-thickness="50"
    underline-position="-50"
    unicode-range="U+0020-U+FEFF"
  />
<missing-glyph horiz-adv-x="500" 
d="M63 0h375v750h-375v-750zM125 63v625h250v-625h-250z" />
    <glyph glyph-name="alefmaddaabovearabic" unicode="&#x627;&#x653;" horiz-adv-x="240" 
d="M283 795h-39q-3 -35 -39 -35q-10 0 -49 14q-37 14 -59 14q-29 0 -48 -22.5t-23 -57.5h36q6 34 35 34q14 0 51 -14q35 -13 57 -13q33 0 55 25q18 18 23 55zM210 0l-5 647h-105l5 -647h105z" />
    <glyph glyph-name="alefhamzaabovearabic" unicode="&#x627;&#x654;" horiz-adv-x="240" 
d="M241 708v49h-33q-38 0 -38 27q0 23 18 23q15 0 27 -13l24 37q-22 28 -53 28q-28 0 -47 -20.5t-19 -50.5q0 -18 9 -31h-43l-23 -49h178zM210 0l-5 647h-105l5 -647h105z" />
    <glyph glyph-name="wawhamzaabovearabic" unicode="&#x648;&#x654;" horiz-adv-x="490" 
d="M384 427v61h-42q-21 0 -34.5 10t-13.5 23q0 30 23 30q19 0 34 -17l30 47q-27 35 -66 35q-36 0 -60 -26t-24 -63q0 -23 11 -39h-53l-29 -61h224zM135 -134l65 -83q117 9 188 94.5t71 215.5v116q0 73 -45 115.5t-127 42.5q-79 0 -133 -52.5t-54 -135.5q0 -73 47.5 -126
t119.5 -53h70q-24 -62 -78.5 -98t-123.5 -36zM353 98h-71q-31 0 -53.5 25.5t-22.5 60.5q0 50 23 80t58 30q24 0 44.5 -21.5t20.5 -39.5q0 -53 1 -135z" />
    <glyph glyph-name="alefhamzabelowarabic" unicode="&#x627;&#x655;" horiz-adv-x="240" 
d="M211 -209v49h-33q-38 0 -38 27q0 23 18 23q14 0 27 -13l24 37q-22 28 -53 28q-28 0 -47 -20.5t-19 -50.5q0 -17 9 -31h-43l-23 -49h178zM210 0l-5 647h-105l5 -647h105z" />
    <glyph glyph-name="yehhamzaabovearabic" unicode="&#x64a;&#x654;" horiz-adv-x="622" 
d="M255 323v65h-44q-27 0 -39 13q-11 11 -10 23q1 16 7 23t19 6q18 -2 33 -17l32 48q-28 37 -69 37q-38 0 -62.5 -27t-24.5 -66q0 -25 12 -40h-57l-30 -65h233zM591 64l-2 123h-208q2 83 59 83q24 0 43 -28l89 44q-50 92 -138 92q-80 0 -123 -56.5t-43 -157.5q0 -32 5 -74
l212 -1l1 -23q0 -82 -53 -132q-46 -43 -108 -43q-58 0 -104 43q-55 49 -55 130q0 3 -0.5 9.5t-1 19t-0.5 24.5q-2 58 -2 70h-104q1 -84 3 -122q0 -117 78 -200t188 -83q109 0 186 83q78 83 78 199z" />
    <glyph glyph-name="shaddadammatanarabic" unicode="&#x64c;&#x651;" arabic-form="isolated" 
d="M200 925q0 21 -16 37.5t-37 16.5q-14 0 -28 -8q-25 -16 -25 -49q0 -22 14 -39q-22 -10 -58 -8q30 18 30 54q0 40 -36 52q-8 3 -15 3q-31 0 -49 -38q17 16 36 16q10 0 17 -7q13 -10 13 -24q0 -25 -39 -55q11 -28 14 -31q19 -3 45 -3q64 0 99 23t35 60zM197 803h-41l1 -69
q0 -18 -16 -14q-18 4 -18 29v54h-42v-54q0 -25 -18 -29q-16 -4 -16 14v69h-40v-77q0 -48 49 -48q24 0 36 13q5 7 11 21q15 -35 46 -36q24 -1 36 11.5t12 38.5v77zM150 946q20 0 20 -20q0 -21 -34 -31q-11 14 -11 28q0 13 12 19q7 4 13 4z" />
    <glyph glyph-name="shaddakasratanarabic" unicode="&#x64d;&#x651;" arabic-form="isolated" 
d="M211 926h-40v-70q0 -18 -16 -14q-18 4 -18 29v55h-42v-55q0 -25 -18 -29q-16 -4 -16 14v70h-40v-78q0 -47 49 -47q24 0 36 13q2 2 10 20q16 -34 47 -36q24 -1 36 11.5t12 38.5v78zM229 771l-164 -4q-37 -4 -53 -34h157q53 2 60 38zM205 705l-165 -3q-37 -4 -52 -35h156
q53 2 61 38z" />
    <glyph glyph-name="shaddafathaarabic" unicode="&#x64e;&#x651;" arabic-form="isolated" 
d="M218 896l-165 -3q-37 -4 -52 -34h157q53 2 60 37zM199 814h-40v-70q0 -18 -16 -14q-18 4 -18 29v55h-42v-55q0 -25 -18 -29q-16 -4 -16 14v70h-40v-78q0 -47 49 -47q24 0 36 13q2 2 10 20q17 -35 47 -36q24 -1 36 11.5t12 38.5v78z" />
    <glyph glyph-name="shaddadammaarabicX" unicode="&#x64f;&#x651;" arabic-form="isolated" 
d="M197 934q0 21 -15.5 38t-36.5 17q-15 0 -29 -9q-25 -16 -25 -49q0 -22 14 -39q-28 -15 -102 -2q13 -36 15 -36q21 -3 45 -3q64 0 99 23t35 60zM199 814h-40v-70q0 -18 -16 -14q-18 4 -18 29v55h-42v-55q0 -25 -18 -29q-16 -4 -16 14v70h-40v-78q0 -47 49 -47q24 0 36 13
q2 2 10 20q16 -34 47 -36q24 -1 36 11.5t12 38.5v78zM148 954q20 0 20 -19q0 -20 -34 -32q-11 16 -11 30q0 13 12 19q8 2 13 2z" />
    <glyph glyph-name="shaddakasraarabic" unicode="&#x650;&#x651;" arabic-form="isolated" 
d="M221 828h-42v-69q0 -10 -3.5 -13.5t-10.5 -1.5q-19 4 -19 29v55h-42v-55q0 -25 -19 -29q-7 -2 -10.5 1.5t-3.5 13.5v69h-42v-78q0 -47 49 -47q25 0 37 13q5 7 11 21q15 -36 46 -36q25 -1 37 11.5t12 37.5v78zM235 677l-164 -4q-38 -5 -53 -34h156q54 1 61 38z" />
    <glyph glyph-name="alefwithfathatanfinal" unicode="&#xfe8e;&#x64b;" horiz-adv-x="322" arabic-form="final" 
d="M281 803l-165 -2q-36 -4 -53 -36h156q54 0 62 38zM256 739l-165 -4q-37 -4 -53 -34h157q53 0 61 38zM331 0v97h-75q-21 0 -33.5 18t-12.5 45l-4 487h-106l3 -529q0 -57 34 -89q29 -29 71 -29h123z" />
    <glyph glyph-name="alefwithfathatanisolated" unicode="&#x627;&#x64b;" horiz-adv-x="240" arabic-form="isolated" 
d="M281 803l-165 -2q-36 -4 -53 -36h156q54 0 62 38zM256 739l-165 -4q-37 -4 -53 -34h157q53 0 61 38zM210 0l-5 647h-105l5 -647h105z" />
    <glyph glyph-name="allahisolated" unicode="&#xfedf;&#xfee0;&#xfeea;" horiz-adv-x="1078" arabic-form="isolated" 
d="M1042 130q0 42 -2 258q0 48 -0.5 109t-1 95.5t-0.5 54.5h-105q0 -19 2 -241q2 -196 2 -240q0 -33 -19 -51t-49 -18h-71q-30 0 -55 28q-29 31 -31 84q-4 154 -5 440h-105l4 -482q0 -35 -30 -54q-23 -14 -50 -16h-102q-41 0 -41 50l-1 283h-105v-36h-2q-35 44 -97 44
q-52 0 -93 -41q-51 -49 -51 -144q0 -145 119 -145h125q0 -108 106 -108h179q42 1 76.5 23t48.5 58q8 -23 25 -43q32 -38 76 -38h118q65 0 100 34.5t35 95.5zM748 836h-41l1 -70q0 -18 -16 -14q-19 4 -19 29v55h-41v-55q0 -25 -18 -29q-16 -3 -16 15v69h-40v-78q0 -47 49 -47
q25 0 35 13q3 2 11 20q17 -35 47 -36q24 -1 36 11.5t12 38.5v78zM278 205h-88q-46 0 -49 48q-5 80 64 80q44 0 72 -46z" />
    <glyph glyph-name="lamalefmaddaaboveisolatedarabi" unicode="&#xfedf;&#xfe82;" horiz-adv-x="449" arabic-form="isolated" 
d="M306 795h-39q-3 -35 -39 -35q-10 0 -49 14q-37 14 -59 14q-29 0 -48 -22.5t-23 -57.5h36q6 34 35 34q14 0 51 -14q35 -13 57 -13q33 0 55 25q18 18 23 55zM222 201l-5 446h-105l5 -484q80 6 105 38zM419 196l-6 451h-107q6 -401 6 -404q0 -80 -71 -118q-52 -28 -122 -28
h-44v-97h85q114 0 186 54q73 55 73 142z" />
    <glyph glyph-name="lamalefmaddaabovefinalarabic" unicode="&#xfee0;&#xfe82;" horiz-adv-x="539" arabic-form="final" 
d="M271 795h-39q-3 -35 -39 -35q-10 0 -49 14q-37 14 -59 14q-29 0 -48 -22.5t-23 -57.5h36q6 34 35 34q14 0 51 -14q35 -13 57 -13q33 0 55 25q18 18 23 55zM553 0v97h-88q-31 0 -59 28q-34 34 -34 84l-6 438h-107q6 -401 6 -404q0 -80 -71 -118q-52 -28 -122 -28h-44v-97
h85q160 0 228 98q12 -38 45 -67q35 -31 78 -31h89zM175 201l-5 446h-105l5 -484q80 6 105 38z" />
    <glyph glyph-name="lamalefhamzaaboveisolatedarabi" unicode="&#xfedf;&#xfe84;" horiz-adv-x="449" arabic-form="isolated" 
d="M231 708v49h-33q-38 0 -38 27q0 23 18 23q15 0 27 -13l24 37q-22 28 -53 28q-28 0 -47 -20.5t-19 -50.5q0 -18 9 -31h-43l-23 -49h178zM222 201l-5 446h-105l5 -484q80 6 105 38zM419 196l-6 451h-107q6 -401 6 -404q0 -80 -71 -118q-52 -28 -122 -28h-44v-97h85
q114 0 186 54q73 55 73 142z" />
    <glyph glyph-name="lamalefhamzaabovefinalarabicX" unicode="&#xfee0;&#xfe84;" horiz-adv-x="539" arabic-form="final" 
d="M186 708v49h-33q-38 0 -38 27q0 23 18 23q15 0 27 -13l24 37q-22 28 -53 28q-28 0 -47 -20.5t-19 -50.5q0 -18 9 -31h-43l-23 -49h178zM553 0v97h-88q-31 0 -59 28q-34 34 -34 84l-6 438h-107q6 -401 6 -404q0 -80 -71 -118q-52 -28 -122 -28h-44v-97h85q160 0 228 98
q12 -38 45 -67q35 -31 78 -31h89zM175 201l-5 446h-105l5 -484q80 6 105 38z" />
    <glyph glyph-name="lamalefhamzabelowisolatedarabi" unicode="&#xfedf;&#xfe88;" horiz-adv-x="449" arabic-form="isolated" 
d="M231 -209v49h-33q-38 0 -38 27q0 23 18 23q14 0 27 -13l24 37q-22 28 -53 28q-28 0 -47 -20.5t-19 -50.5q0 -17 9 -31h-43l-23 -49h178zM222 201l-5 446h-105l5 -484q80 6 105 38zM419 196l-6 451h-107q6 -401 6 -404q0 -80 -71 -118q-52 -28 -122 -28h-44v-97h85
q114 0 186 54q73 55 73 142z" />
    <glyph glyph-name="lamalefhamzabelowfinalarabicX" unicode="&#xfee0;&#xfe88;" horiz-adv-x="539" arabic-form="final" 
d="M206 -209v49h-33q-38 0 -38 27q0 23 18 23q14 0 27 -13l24 37q-22 28 -53 28q-28 0 -47 -20.5t-19 -50.5q0 -17 9 -31h-43l-23 -49h178zM553 0v97h-88q-31 0 -59 28q-34 34 -34 84l-6 438h-107q6 -401 6 -404q0 -80 -71 -118q-52 -28 -122 -28h-44v-97h85q160 0 228 98
q12 -38 45 -67q35 -31 78 -31h89zM175 201l-5 446h-105l5 -484q80 6 105 38z" />
    <glyph glyph-name="lamalefisolatedarabic" unicode="&#xfedf;&#xfe8e;" horiz-adv-x="449" arabic-form="isolated" 
d="M222 201l-5 446h-105l5 -484q80 6 105 38zM419 196l-6 451h-107q6 -401 6 -404q0 -80 -71 -118q-52 -28 -122 -28h-44v-97h85q114 0 186 54q73 55 73 142z" />
    <glyph glyph-name="lamaleffinalarabic" unicode="&#xfee0;&#xfe8e;" horiz-adv-x="539" arabic-form="final" 
d="M553 0v97h-88q-31 0 -59 28q-34 34 -34 84l-6 438h-107q6 -401 6 -404q0 -80 -71 -118q-52 -28 -122 -28h-44v-97h85q160 0 228 98q12 -38 45 -67q35 -31 78 -31h89zM175 201l-5 446h-105l5 -484q80 6 105 38z" />
    <glyph glyph-name="hamzaarabic" unicode="&#x621;" horiz-adv-x="462" arabic-form="isolated" 
d="M437 0v98h-68q-33 0 -54 15.5t-21 37.5q0 19 10.5 33t25.5 14q29 0 55 -26l48 74q-18 22 -48.5 39t-56.5 17q-57 0 -95.5 -41.5t-38.5 -101.5q0 -35 18 -61h-86l-46 -98h357z" />
    <glyph glyph-name="alefarabic" unicode="&#x627;" horiz-adv-x="240" arabic-form="isolated" 
d="M210 0l-5 647h-105l5 -647h105z" />
    <glyph glyph-name="beharabic" unicode="&#x628;" horiz-adv-x="738" arabic-form="isolated" 
d="M708 78q0 185 -2 287h-106l3 -212q0 -56 -39 -56h-254q-93 0 -137 92q-34 69 -34 176h-105q-3 -145 52 -242q70 -123 219 -123h310q38 0 63 21t30 57zM461 -171v101h-96v-101h96z" />
    <glyph glyph-name="tehmarbutaarabic" unicode="&#x629;" horiz-adv-x="438" arabic-form="isolated" 
d="M333 446v101h-97v-101h97zM188 446v101h-97v-101h97zM408 188q0 75 -49 128q-54 60 -142 60q-86 0 -134.5 -50.5t-48.5 -137.5q0 -74 50 -129q53 -59 141 -59q85 0 134 50t49 138zM303 187q0 -47 -21.5 -74t-55.5 -27q-33 0 -55 25q-26 29 -26 76q0 48 22 76q22 25 55 25
q31 0 55 -25q26 -29 26 -76z" />
    <glyph glyph-name="teharabic" unicode="&#x62a;" horiz-adv-x="738" arabic-form="isolated" 
d="M502 365v101h-96v-101h96zM357 365v101h-96v-101h96zM708 78q0 185 -2 287h-106l3 -212q0 -56 -39 -56h-254q-93 0 -137 92q-34 69 -34 176h-105q-3 -145 52 -242q70 -123 219 -123h310q38 0 63 21t30 57z" />
    <glyph glyph-name="theharabic" unicode="&#x62b;" horiz-adv-x="738" arabic-form="isolated" 
d="M421 497v100h-97v-100h97zM493 365v100h-96v-100h96zM348 365v100h-96v-100h96zM708 78q0 185 -2 287h-106l3 -212q0 -56 -39 -56h-254q-93 0 -137 92q-34 69 -34 176h-105q-3 -145 52 -242q70 -123 219 -123h310q38 0 63 21t30 57z" />
    <glyph glyph-name="jeemarabic" unicode="&#x62c;" horiz-adv-x="552" arabic-form="isolated" 
d="M522 98q0 135 -61 232q-68 110 -184 110q-90 0 -157 -58l37 -79q56 41 107 41q48 1 87 -28q51 -38 63 -120h-192q-81 0 -137 -65q-51 -61 -51 -145t59 -143q60 -60 144 -60h140v97h-132q-41 0 -73 29q-35 32 -35 81q0 51 29 79.5t82 28.5h274zM356 -63v101h-96v-101h96z
" />
    <glyph glyph-name="haharabic" unicode="&#x62d;" horiz-adv-x="552" arabic-form="isolated" 
d="M522 98q0 135 -61 232q-68 110 -184 110q-90 0 -157 -58l37 -79q56 41 107 41q48 1 87 -28q51 -38 63 -120h-192q-81 0 -137 -65q-51 -61 -51 -145t59 -143q60 -60 144 -60h140v97h-132q-41 0 -73 29q-35 32 -35 81q0 51 29 79.5t82 28.5h274z" />
    <glyph glyph-name="khaharabic" unicode="&#x62e;" horiz-adv-x="552" arabic-form="isolated" 
d="M359 492v101h-96v-101h96zM522 98q0 135 -61 232q-68 110 -184 110q-90 0 -157 -58l37 -79q56 41 107 41q48 1 87 -28q51 -38 63 -120h-192q-81 0 -137 -65q-51 -61 -51 -145t59 -143q60 -60 144 -60h140v97h-132q-41 0 -73 29q-35 32 -35 81q0 51 29 79.5t82 28.5h274z
" />
    <glyph glyph-name="dalarabic" unicode="&#x62f;" horiz-adv-x="561" arabic-form="isolated" 
d="M531 0q0 181 -68 276q-65 89 -184 89v-95q40 0 81 -41q49 -49 58 -132h-278l-50 -97h441z" />
    <glyph glyph-name="thalarabic" unicode="&#x630;" horiz-adv-x="561" arabic-form="isolated" 
d="M376 446v101h-97v-101h97zM531 0q0 181 -68 276q-65 89 -184 89v-95q40 0 81 -41q49 -49 58 -132h-278l-50 -97h441z" />
    <glyph glyph-name="reharabic" unicode="&#x631;" horiz-adv-x="310" arabic-form="isolated" 
d="M-47 -134q40 -48 66 -83q118 9 189 95q72 85 72 215l-2 272h-107l2 -283q0 -96 -66 -157q-62 -57 -154 -59z" />
    <glyph glyph-name="zainarabic" unicode="&#x632;" horiz-adv-x="310" arabic-form="isolated" 
d="M171 446h97v101h-97v-101zM-47 -134q40 -48 66 -83q118 9 189 95q72 85 72 215l-2 272h-107l2 -283q0 -96 -66 -157q-62 -57 -154 -59z" />
    <glyph glyph-name="seenarabic" unicode="&#x633;" horiz-adv-x="1122" arabic-form="isolated" 
d="M1088 150l-1 215h-106v-45t0.5 -39.5t0.5 -34v-28.5v-23v-18v-12.5v-6.5v-2q0 -67 -61 -67q-39 0 -65 27q-27 27 -29 84q0 24 -0.5 54.5t-1 50t-0.5 31.5h-105q1 -105 1 -179q0 -68 -61 -68q-40 0 -65 27q-24 25 -28 66v2l-1 152h-105q0 -37 3 -271q0 -72 -48 -123
q-47 -51 -113 -51q-67 0 -114 51q-47 50 -47 121q-1 60 -1 206h-107l4 -204q0 -117 78 -200t187 -83q110 0 187 83q70 74 77 173q43 -53 117 -52q95 2 128 79q40 -81 133 -79q141 3 143 164z" />
    <glyph glyph-name="sheenarabic" unicode="&#x634;" horiz-adv-x="1122" arabic-form="isolated" 
d="M1088 150l-1 215h-106v-45t0.5 -39.5t0.5 -34v-28.5v-23v-18v-12.5v-6.5v-2q0 -67 -61 -67q-39 0 -65 27q-27 27 -29 84q0 24 -0.5 54.5t-1 50t-0.5 31.5h-105q1 -105 1 -179q0 -68 -61 -68q-40 0 -65 27q-24 25 -28 66v2l-1 152h-105q0 -37 3 -271q0 -72 -48 -123
q-47 -51 -113 -51q-67 0 -114 51q-47 50 -47 121q-1 60 -1 206h-107l4 -204q0 -117 78 -200t187 -83q110 0 187 83q70 74 77 173q43 -53 117 -52q95 2 128 79q40 -81 133 -79q141 3 143 164zM892 446v101h-97v-101h97zM747 446v101h-97v-101h97zM819 578v100h-96v-100h96z
" />
    <glyph glyph-name="sadarabic" unicode="&#x635;" horiz-adv-x="1125" arabic-form="isolated" 
d="M1086 0q0 153 -34 234q-51 118 -179 132q-67 7 -148 -37q-106 -59 -158 -180l-1 121h-107l5 -205q0 -72 -48 -123q-47 -51 -113 -51q-67 0 -114 51q-47 50 -47 121q-1 60 -1 206h-107l4 -204q0 -117 78 -200t187 -83q110 0 187 83q61 65 74 148v-13h522zM979 101v-4h-353
q90 175 221 175q7 0 23 -2q66 -8 93 -81q16 -39 16 -88z" />
    <glyph glyph-name="dadarabic" unicode="&#x636;" horiz-adv-x="1125" arabic-form="isolated" 
d="M1086 0q0 153 -34 234q-51 118 -179 132q-67 7 -148 -37q-106 -59 -158 -180l-1 121h-107l5 -205q0 -72 -48 -123q-47 -51 -113 -51q-67 0 -114 51q-47 50 -47 121q-1 60 -1 206h-107l4 -204q0 -117 78 -200t187 -83q110 0 187 83q61 65 74 148v-13h522zM979 101v-4h-353
q90 175 221 175q7 0 23 -2q66 -8 93 -81q16 -39 16 -88zM885 446v101h-96v-101h96z" />
    <glyph glyph-name="taharabic" unicode="&#x637;" horiz-adv-x="723" arabic-form="isolated" 
d="M693 0q0 366 -235 366q-53 0 -101 -21q-56 -26 -90 -73l5 321h-103l1 -495l-104 -1l-32 -97h659zM585 97l-333 1q62 174 201 174q136 0 132 -175z" />
    <glyph glyph-name="zaharabic" unicode="&#x638;" horiz-adv-x="723" arabic-form="isolated" 
d="M499 446v101h-96v-101h96zM693 0q0 366 -235 366q-53 0 -101 -21q-56 -26 -90 -73l5 321h-103l2 -496h-105l-32 -97h659zM585 97h-333q63 175 201 175q131 0 132 -175z" />
    <glyph glyph-name="ainarabic" unicode="&#x639;" horiz-adv-x="514" arabic-form="isolated" 
d="M484 153v99h-95q-116 0 -116 92q0 33 21 54t53 21q36 0 74 -35l55 74q-52 64 -141 64q-66 0 -113 -38q-56 -46 -55 -123q0 -49 21 -83q10 -16 21 -26q-78 -4 -128 -69q-47 -62 -47 -142q0 -84 59 -143q60 -60 144 -60h156v97h-148q-41 0 -73 30q-35 32 -35 80
q0 51 29 79.5t82 28.5h236z" />
    <glyph glyph-name="ghainarabic" unicode="&#x63a;" horiz-adv-x="514" arabic-form="isolated" 
d="M384 566v101h-96v-101h96zM484 153v99h-95q-116 0 -116 92q0 33 21 54t53 21q36 0 74 -35l55 74q-52 64 -141 64q-66 0 -113 -38q-56 -46 -55 -123q0 -49 21 -83q10 -16 21 -26q-78 -4 -128 -69q-47 -62 -47 -142q0 -84 59 -143q60 -60 144 -60h156v97h-148q-41 0 -73 30
q-35 32 -35 80q0 51 29 79.5t82 28.5h236z" />
    <glyph glyph-name="feharabic" unicode="&#x641;" horiz-adv-x="737" arabic-form="isolated" 
d="M586 589v101h-96v-101h96zM707 379q-2 146 -172 159q-65 5 -119 -39q-64 -52 -68 -149q-2 -70 42 -123q50 -56 123 -56h86v-28q0 -46 -40 -46h-249q-93 0 -137 92q-34 69 -34 176h-105q-3 -143 50 -241q69 -124 214 -124h317h1q77 0 89 66q2 6 2 313zM599 267h-71
q-32 0 -54.5 26t-21.5 63q1 49 23 78t58 29q32 0 50 -27q14 -22 14 -34q0 -3 0.5 -18.5t1 -48.5t0.5 -68z" />
    <glyph glyph-name="qafarabic" unicode="&#x642;" horiz-adv-x="640" arabic-form="isolated" 
d="M559 446v101h-97v-101h97zM414 446v101h-97v-101h97zM609 92v116q0 145 -172 158q-66 5 -119 -38q-65 -53 -68 -150q-3 -70 42 -123q48 -56 123 -56h34q18 1 39 1q-48 -105 -161 -105q-79 0 -134 61q-54 60 -54 147v117h-105v-127q0 -143 85 -228q81 -82 207 -82
q129 0 205 85q78 86 78 224zM501 96h-71q-32 0 -54.5 25.5t-21.5 62.5q2 50 23.5 78.5t56.5 28.5q32 0 50 -26q15 -22 15 -35q0 -3 0.5 -18.5t1 -48t0.5 -67.5z" />
    <glyph glyph-name="kafarabic" unicode="&#x643;" horiz-adv-x="739" arabic-form="isolated" 
d="M491 325v65h-44q-27 0 -40 13q-10 10 -10 23q1 16 7.5 23t18.5 6q17 -2 34 -17l32 48q-30 36 -69 36q-38 0 -63 -27t-25 -66q0 -24 12 -39h-56l-30 -65h233zM708 78q0 249 -6 571h-106q7 -449 7 -496q0 -56 -39 -56h-254q-93 0 -137 92q-34 69 -34 176h-105
q-3 -145 52 -242q70 -123 219 -123h310q38 0 63 21t30 57z" />
    <glyph glyph-name="lamarabic" unicode="&#x644;" horiz-adv-x="598" arabic-form="isolated" 
d="M568 64l-4 594h-107l7 -593q0 -72 -48 -123q-47 -51 -113 -51q-67 0 -114 51q-47 50 -47 121q-1 60 -1 206h-107l4 -204q0 -117 78 -200t187 -83q110 0 187 83q78 83 78 199z" />
    <glyph glyph-name="meemarabic" unicode="&#x645;" horiz-adv-x="651" arabic-form="isolated" 
d="M621 188q0 75 -49 128q-54 60 -142 60q-134 0 -171 -115h-54h-40q-133 0 -131 -131l5 -347h105l-4 291q-1 40 7 59q13 24 51 24h52q11 -67 58 -110q52 -47 130 -47q85 0 134 50t49 138zM516 187q0 -47 -21.5 -74t-55.5 -27q-33 0 -55 25q-26 29 -26 76t23 76q21 25 53 25
q34 0 56 -25q26 -29 26 -76z" />
    <glyph glyph-name="noonarabic" unicode="&#x646;" horiz-adv-x="598" arabic-form="isolated" 
d="M347 364v101h-97v-101h97zM568 64l-2 206h-107l5 -205q0 -72 -48 -123q-47 -51 -113 -51q-67 0 -114 51q-47 50 -47 121q-1 60 -1 206h-107l4 -204q0 -117 78 -200t187 -83q110 0 187 83q78 83 78 199z" />
    <glyph glyph-name="heharabic" unicode="&#x647;" horiz-adv-x="438" arabic-form="isolated" 
d="M408 188q0 75 -49 128q-54 60 -142 60q-86 0 -134.5 -50.5t-48.5 -137.5q0 -74 50 -129q53 -59 141 -59q85 0 134 50t49 138zM303 187q0 -47 -21.5 -74t-55.5 -27q-33 0 -55 25q-26 29 -26 76q0 48 22 76q22 25 55 25q31 0 55 -25q26 -29 26 -76z" />
    <glyph glyph-name="wawarabic" unicode="&#x648;" horiz-adv-x="490" arabic-form="isolated" 
d="M135 -134l65 -83q117 9 188 94.5t71 215.5v116q0 73 -45 115.5t-127 42.5q-79 0 -133 -52.5t-54 -135.5q0 -73 47.5 -126t119.5 -53h70q-24 -62 -78.5 -98t-123.5 -36zM353 98h-71q-31 0 -53.5 25.5t-22.5 60.5q0 50 23 80t58 30q24 0 44.5 -21.5t20.5 -39.5
q0 -53 1 -135z" />
    <glyph glyph-name="alefmaksuraarabic" unicode="&#x649;" horiz-adv-x="598" arabic-form="isolated" 
d="M568 64l-3 123h-207q2 83 58 83q24 0 43 -28l90 44q-50 92 -138 92q-80 0 -123 -56.5t-43 -157.5q0 -32 5 -74l212 -1l1 -23q0 -82 -54 -132q-46 -43 -107 -43q-58 0 -105 43q-55 49 -55 130q0 3 -0.5 9.5t-1 19t-0.5 24.5q-1 29 -1 70h-105l2.5 -69.5t1.5 -52.5
q0 -117 78 -200t187 -83q110 0 187 83q78 83 78 199z" />
    <glyph glyph-name="yeharabic" unicode="&#x64a;" horiz-adv-x="598" arabic-form="isolated" 
d="M568 64l-3 123h-207q2 83 58 83q24 0 43 -28l90 44q-50 92 -138 92q-80 0 -123 -56.5t-43 -157.5q0 -32 5 -74l212 -1l1 -23q0 -82 -54 -132q-46 -43 -107 -43q-58 0 -105 43q-55 49 -55 130q0 3 -0.5 9.5t-1 19t-0.5 24.5q-1 29 -1 70h-105l2.5 -69.5t1.5 -52.5
q0 -117 78 -200t187 -83q110 0 187 83q78 83 78 199zM446 -393v101h-97v-101h97zM301 -393v101h-97v-101h97z" />
    <glyph glyph-name="fathatanarabic" unicode="&#xfe70;" arabic-form="isolated" 
d="M228 803l-165 -2q-36 -4 -53 -36h156q54 2 62 38zM203 739l-165 -4q-37 -4 -53 -34h157q54 2 61 38z" />
    <glyph glyph-name="dammatanarabic" unicode="&#xfe72;" arabic-form="isolated" 
d="M179 721q0 22 -16 38.5t-37 16.5q-14 0 -28 -9q-25 -16 -25 -48q0 -23 14 -40q-25 -9 -58 -8q30 19 30 55q0 38 -36 52q-10 2 -14 2q-30 0 -50 -38q20 17 36 17q10 0 17 -7q13 -10 13 -24q0 -24 -39 -56q11 -28 14 -31q28 -2 45 -2q64 0 99 22.5t35 59.5zM129 742
q20 0 20 -20t-33 -31q-12 15 -12 29q0 13 12 19q8 3 13 3z" />
    <glyph glyph-name="kasratanarabic" unicode="&#xfe74;" arabic-form="isolated" 
d="M217 -216l-164 -3q-36 -4 -53 -35h157q53 2 60 38zM193 -281l-165 -4q-37 -4 -52 -34h156q52 1 61 38z" />
    <glyph glyph-name="fathaarabic" unicode="&#xfe76;" arabic-form="isolated" 
d="M226 781l-165 -3q-38 -5 -52 -35h156q53 2 61 38z" />
    <glyph glyph-name="dammaarabic" unicode="&#xfe78;" arabic-form="isolated" 
d="M182 770q0 21 -16 37.5t-37 16.5q-15 0 -28 -9q-25 -16 -25 -49q0 -21 14 -38q-27 -16 -103 -2q13 -36 16 -36q17 -4 44 -4q64 0 99.5 23.5t35.5 60.5zM133 790q20 0 20 -19q0 -22 -34 -32q-11 14 -11 29q0 13 12 19q6 3 13 3z" />
    <glyph glyph-name="kasraarabic" unicode="&#xfe7a;" arabic-form="isolated" 
d="M193 -281l-165 -4q-37 -4 -52 -34h156q52 1 61 38z" />
    <glyph glyph-name="shaddaarabic" unicode="&#xfe7c;" arabic-form="isolated" 
d="M211 821h-41l1 -70q0 -18 -16 -14q-19 4 -19 29v55h-41v-55q0 -24 -18 -29q-16 -3 -16 15v69h-40v-78q0 -47 49 -47q25 0 35 13q3 2 11 20q17 -35 47 -36q24 -1 36 11.5t12 38.5v78z" />
    <glyph glyph-name="sukunarabic" unicode="&#xfe7e;" arabic-form="isolated" 
d="M161 771q0 34 -20.5 56.5t-54.5 21.5q-71 -2 -69 -80q1 -32 22 -55t53 -23q71 2 69 80zM118 771q2 -39 -26 -39q-14 -1 -21 8.5t-8 29.5q-1 37 26 39q27 0 29 -38z" />
    <glyph glyph-name="alefwaslaisolated" unicode="&#x671;" horiz-adv-x="240" arabic-form="isolated" 
d="M282 708q0 131 -84 131q-29 0 -56.5 -21t-42.5 -55v42h-33v-61h-28v-36h244zM240 744h-119q37 55 79 55q40 0 40 -55zM210 0l-5 647h-105l5 -647h105z" />
    <glyph glyph-name="peharabic" unicode="&#x67e;" horiz-adv-x="738" arabic-form="isolated" 
d="M708 78q0 185 -2 287h-106l3 -212q0 -56 -39 -56h-254q-93 0 -137 92q-34 69 -34 176h-105q-3 -145 52 -242q70 -123 219 -123h310q38 0 63 21t30 57zM529 -171v101h-96v-101h96zM384 -171v101h-96v-101h96zM457 -303v101h-97v-101h97zM708 78q-5 -36 -30 -57t-63 -21
h-310q-149 0 -219 123q-55 97 -52 242h105q0 -107 34 -176q44 -92 137 -92h254q39 0 39 28q0 29 -3 240h106q2 -132 2 -287zM708 78q0 185 -2 287h-106l3 -212q0 -56 -39 -56h-254q-93 0 -137 92q-34 69 -34 176h-105q-3 -145 52 -242q70 -123 219 -123h310q38 0 63 21
t30 57z" />
    <glyph glyph-name="tcheharabic" unicode="&#x686;" horiz-adv-x="552" arabic-form="isolated" 
d="M399 -3v72h-69v-72h69zM522 98q0 135 -61 232q-68 110 -184 110q-90 0 -157 -58l37 -79q56 41 107 41q48 1 87 -28q51 -38 63 -120h-192q-81 0 -137 -65q-51 -61 -51 -145t59 -143q60 -60 144 -60h140v97h-132q-41 0 -73 29q-35 32 -35 81q0 51 29 79.5t82 28.5h274z
M296 -3v72h-69v-72h69zM347 -97v72h-69v-72h69z" />
    <glyph glyph-name="jeharabic" unicode="&#x698;" horiz-adv-x="310" arabic-form="isolated" 
d="M-47 -134q40 -48 66 -83q118 9 189 95q72 85 72 215l-2 272h-107l2 -283q0 -96 -66 -157q-62 -57 -154 -59zM207 578v100h-96v-100h96zM280 446v101h-97v-101h97zM135 446v101h-97v-101h97z" />
    <glyph glyph-name="veharabic" unicode="&#x6a4;" horiz-adv-x="737" arabic-form="isolated" 
d="M584 721v100h-96v-100h96zM657 589v101h-97v-101h97zM512 589v101h-97v-101h97zM707 379q-2 146 -172 159q-65 5 -119 -39q-64 -52 -68 -149q-2 -70 42 -123q50 -56 123 -56h86v-28q0 -46 -40 -46h-249q-93 0 -137 92q-34 69 -34 176h-105q-3 -143 50 -241
q69 -124 214 -124h317h1q77 0 89 66q2 6 2 313zM599 267h-71q-32 0 -54.5 26t-21.5 63q1 49 23 78t58 29q32 0 50 -27q14 -22 14 -34q0 -3 0.5 -18.5t1 -48.5t0.5 -68z" />
    <glyph glyph-name="alefwaslafinal" unicode="&#x671;" horiz-adv-x="322" arabic-form="final" 
d="M282 708q0 131 -84 131q-29 0 -56.5 -21t-42.5 -55v42h-33v-61h-28v-36h244zM240 744h-119q37 55 79 55q40 0 40 -55zM331 0v97h-75q-21 0 -33.5 18t-12.5 45l-4 487h-106l3 -529q0 -52 30 -85t75 -33h123z" />
    <glyph glyph-name="pehfinalarabic" unicode="&#x67e;" horiz-adv-x="876" arabic-form="final" 
d="M885 0v97h-91q-30 0 -55 28q-29 31 -31 84q0 27 -0.5 62t-1 57.5t-0.5 36.5h-106l3 -212q0 -56 -39 -56h-254q-93 0 -137 92q-34 69 -34 176h-105q-3 -145 52 -242q70 -123 219 -123h310q73 0 91 67q34 -67 95 -67h84zM537 -171v101h-97v-101h97zM392 -171v101h-96v-101
h96zM465 -303v101h-96v-101h96z" />
    <glyph glyph-name="pehinitialarabic" unicode="&#x67e;" horiz-adv-x="311" arabic-form="initial" 
d="M281 130v4v14.5t-0.5 23.5t-0.5 34v43t-0.5 53.5t-0.5 62.5h-106q1 -14 1.5 -48.5t0.5 -51.5q1 -27 1 -99q0 -33 -19 -51t-49 -18h-118v-97h157q64 0 99 34.5t35 95.5zM247 -171v101h-96v-101h96zM103 -171v101h-97v-101h97zM175 -303v101h-97v-101h97z" />
    <glyph glyph-name="pehmedialarabic" unicode="&#x67e;" horiz-adv-x="454" arabic-form="medial" 
d="M463 0v25v47v25h-80q-30 0 -55 28q-31 31 -31 84q-3 101 -3 156h-105l2 -198q0 -35 -31 -54q-23 -16 -52 -16h-118v-97h158q42 1 76.5 23t47.5 58q6 -19 25 -43q32 -38 77 -38h89zM345 -171v101h-97v-101h97zM200 -171v101h-97v-101h97zM272 -303v101h-96v-101h96z" />
    <glyph glyph-name="vehfinalarabic" unicode="&#x6a4;" horiz-adv-x="878" arabic-form="final" 
d="M657 646v100h-97v-100h97zM729 514v101h-96v-101h96zM584 514v101h-96v-101h96zM900 0v97h-69q-59 0 -105 8q70 70 70 158q0 82 -56 130q-53 44 -129 44q-77 0 -127 -44q-56 -48 -56 -130q0 -89 70 -158q-42 -8 -67 -8h-121q-93 0 -137 92q-34 69 -34 176h-105
q-3 -146 52 -243q70 -123 219 -123q43 0 71 1h73q82 0 163 34q83 -34 166 -34h122zM690 267q0 -47 -33 -89q-29 -33 -45 -33t-45 33q-33 42 -33 89q0 38 21 64t56 26q36 0 57.5 -26t21.5 -64z" />
    <glyph glyph-name="vehinitialarabic" unicode="&#x6a4;" horiz-adv-x="416" arabic-form="initial" 
d="M264 720v101h-96v-101h96zM336 588v101h-96v-101h96zM191 588v101h-96v-101h96zM386 88v291q-2 145 -171 159q-66 5 -119 -39q-65 -53 -68 -149q-3 -70 42 -123q48 -56 122 -56h86v-28q-1 -46 -40 -46h-249v-97h307q46 0 68.5 22t21.5 66zM278 267h-70q-33 0 -55.5 26
t-21.5 63q3 49 24.5 78t56.5 29q32 0 50 -27q15 -21 15 -34q0 -53 1 -135z" />
    <glyph glyph-name="vehmedialarabic" unicode="&#x6a4;" horiz-adv-x="500" arabic-form="medial" 
d="M279 646v100h-96v-100h96zM352 514v101h-97v-101h97zM207 514v101h-97v-101h97zM509 0v97h-56q-59 0 -105 8q70 70 70 158q0 82 -57 130q-52 44 -128 44t-128 -44q-56 -48 -56 -130q0 -89 71 -158q-47 -9 -102 -8h-28v-97h81q82 0 163 34q81 -34 165 -34h110zM312 267
q0 -47 -33 -89q-27 -33 -45 -33t-45 33q-34 41 -34 89q0 38 21.5 64t57.5 26t58 -28q20 -26 20 -62z" />
    <glyph glyph-name="tchehfinalarabic" unicode="&#x686;" horiz-adv-x="642" arabic-form="final" 
d="M651 0q0 14 -1 25v47v25h-44q-27 0 -47 13q-31 18 -34 54q-13 114 -77 191q-69 85 -171 85q-91 0 -158 -58l38 -79q55 41 107 41q47 1 86 -28q50 -37 64 -120h-192q-83 0 -137 -65q-51 -61 -51 -145t59 -143q60 -60 144 -60h140v97h-132q-41 0 -73 29q-35 32 -35 81
q0 51 29 79.5t82 28.5h197q47 -98 150 -98h56zM399 -3v72h-69v-72h69zM296 -3v72h-69v-72h69zM347 -97v72h-69v-72h69z" />
    <glyph glyph-name="tchehinitialarabic" unicode="&#x686;" horiz-adv-x="566" arabic-form="initial" 
d="M536 0q0 155 -58 253q-74 122 -220 122q-118 0 -177 -52l41 -82q41 34 133 34q143 0 173 -177h-440v-98h548zM395 -171v101h-97v-101h97zM250 -171v101h-97v-101h97zM322 -303v101h-96v-101h96z" />
    <glyph glyph-name="tchehmedialarabic" unicode="&#x686;" horiz-adv-x="619" arabic-form="medial" 
d="M628 0v97h-98q-18 123 -79 193q-72 85 -193 85q-118 0 -177 -52l41 -82q41 34 133 34q144 0 174 -178h-439v-97h520h118zM401 -171v101h-97v-101h97zM256 -171v101h-97v-101h97zM328 -303v101h-95v-101h95z" />
    <glyph glyph-name="jehfinalarabic" unicode="&#x698;" horiz-adv-x="467" arabic-form="final" 
d="M-47 -134q40 -48 66 -83q110 9 181.5 85.5t78.5 193.5q35 -62 93 -62h104v97h-111q-32 0 -57.5 30t-29.5 71v167h-106v-283q0 -93 -62 -153.5t-157 -62.5zM207 578v100h-96v-100h96zM280 446v101h-97v-101h97zM135 446v101h-97v-101h97z" />
    <glyph glyph-name="alefmaksurainitialarabic" unicode="&#x6cc;" horiz-adv-x="311" arabic-form="initial" 
d="M281 130v4v14.5t-0.5 23.5t-0.5 34v43t-0.5 53.5t-0.5 62.5h-106q1 -14 1.5 -48.5t0.5 -51.5q1 -27 1 -99q0 -33 -19 -51t-49 -18h-118v-97h157q64 0 99 34.5t35 95.5zM228 -152v101h-96v-101h96zM84 -152v101h-97v-101h97z" />
    <glyph glyph-name="alefmaksuramedialarabic" unicode="&#x6cc;" horiz-adv-x="454" arabic-form="medial" 
d="M463 0v25v47v25h-80q-30 0 -55 28q-31 31 -31 84q-3 101 -3 156h-105l2 -198q0 -35 -31 -54q-23 -16 -52 -16h-118v-97h158q42 1 76.5 23t47.5 58q6 -19 25 -43q32 -38 77 -38h89zM340 -152v101h-96v-101h96zM196 -152v101h-97v-101h97z" />
    <glyph glyph-name="alefmaddaabovefinalarabic" unicode="&#x622;" horiz-adv-x="322" arabic-form="final" 
d="M296 795h-39q-3 -35 -39 -35q-10 0 -49 14q-37 14 -59 14q-29 0 -48 -22.5t-23 -57.5h36q6 34 35 34q14 0 51 -14q35 -13 57 -13q33 0 55 25q18 18 23 55zM331 0v97h-75q-21 0 -33.5 18t-12.5 45l-4 487h-106l3 -529q0 -57 34 -89q29 -29 71 -29h123z" />
    <glyph glyph-name="alefhamzaabovefinalarabic" unicode="&#x623;" horiz-adv-x="322" arabic-form="final" 
d="M229 708v49h-33q-38 0 -38 27q0 23 18 23q15 0 27 -13l24 37q-22 28 -53 28q-28 0 -47 -20.5t-19 -50.5q0 -18 9 -31h-43l-23 -49h178zM331 0v97h-75q-21 0 -33.5 18t-12.5 45l-4 487h-106l3 -529q0 -57 34 -89q29 -29 71 -29h123z" />
    <glyph glyph-name="wawhamzaabovefinalarabic" unicode="&#x624;" horiz-adv-x="584" arabic-form="final" 
d="M385 427v61h-42q-21 0 -34.5 10t-13.5 23q0 30 23 30q19 0 34 -17l30 47q-27 35 -66 35q-36 0 -60 -26t-24 -63q0 -23 11 -39h-53l-29 -61h224zM594 0v97h-134v112q0 73 -45.5 115.5t-126.5 42.5q-79 0 -133 -52.5t-54 -135.5q0 -73 47.5 -126t119.5 -53h70
q-24 -62 -78.5 -98t-123.5 -36l65 -83q95 8 160.5 65.5t88.5 151.5h144zM354 97h-71q-31 0 -53.5 25.5t-22.5 61.5q0 49 23 79t58 30q24 0 44.5 -21.5t20.5 -39.5q0 -53 1 -135z" />
    <glyph glyph-name="alefhamzabelowfinalarabic" unicode="&#x625;" horiz-adv-x="322" arabic-form="final" 
d="M241 -209v49h-33q-38 0 -38 27q0 23 18 23q14 0 27 -13l24 37q-22 28 -53 28q-28 0 -47 -20.5t-19 -50.5q0 -17 9 -31h-43l-23 -49h178zM331 0v97h-75q-21 0 -33.5 18t-12.5 45l-4 487h-106l3 -529q0 -57 34 -89q29 -29 71 -29h123z" />
    <glyph glyph-name="yehhamzaabovefinalarabic" unicode="&#x626;" horiz-adv-x="870" arabic-form="final" 
d="M255 355v65h-44q-27 0 -39 13q-11 11 -10 23q1 16 7 23t19 6q18 -2 33 -17l32 48q-28 37 -69 37q-38 0 -62.5 -27t-24.5 -67q0 -24 12 -39h-57l-30 -65h233zM879 0v97h-38q-64 0 -80 64q-26 96 -61 146q-66 93 -185 93q-110 0 -173 -78q-67 -82 -67 -233h213l1 -23
q0 -82 -53 -132q-46 -43 -108 -43q-58 0 -105 43q-55 49 -55 130q0 3 -0.5 9.5t-1 19t-0.5 24.5q-1 29 -1 70h-105l2 -49.5t2 -44.5t1 -28q0 -117 77 -200q78 -83 187 -83q110 0 188 83t78 199v123h-192q33 104 118 105q108 2 147 -174q9 -43 40 -75q39 -43 98 -43h73z" />
    <glyph glyph-name="yehhamzaaboveinitialarabic" unicode="&#x626;" horiz-adv-x="311" arabic-form="initial" 
d="M213 446v64h-45q-27 0 -40 13q-9 11 -9 24q1 16 7.5 23t18.5 6q16 -1 33 -17l32 48q-28 36 -69 36q-38 0 -63 -27t-25 -66q0 -24 13 -40h-57l-30 -64h234zM281 130v4v14.5t-0.5 23.5t-0.5 34v43t-0.5 53.5t-0.5 62.5h-106q1 -14 1.5 -48.5t0.5 -51.5q1 -27 1 -99
q0 -33 -19 -51t-49 -18h-118v-97h157q64 0 99 34.5t35 95.5z" />
    <glyph glyph-name="yehhamzaabovemedialarabic" unicode="&#x626;" horiz-adv-x="465" arabic-form="medial" 
d="M338 445v64h-45q-27 0 -40 13q-9 10 -9 24q1 16 7.5 23t18.5 6q17 -1 33 -17l32 48q-29 36 -69 36q-38 0 -63 -27t-25 -66q0 -24 13 -40h-57l-30 -64h234zM473 0v25v47v25h-90q-30 0 -55 28q-31 31 -31 84q-3 101 -3 156h-105l2 -198q0 -35 -31 -54q-23 -16 -52 -16h-118
v-97h158q42 1 76.5 23t47.5 58q6 -19 25 -43q32 -38 77 -38h99z" />
    <glyph glyph-name="aleffinalarabic" unicode="&#x627;" horiz-adv-x="322" arabic-form="final" 
d="M331 0v97h-75q-21 0 -33.5 18t-12.5 45l-4 487h-106l3 -529q0 -57 34 -89q29 -29 71 -29h123z" />
    <glyph glyph-name="behfinalarabic" unicode="&#x628;" horiz-adv-x="876" arabic-form="final" 
d="M885 0v97h-91q-30 0 -55 28q-29 31 -31 84q0 27 -0.5 62t-1 57.5t-0.5 36.5h-106l3 -212q0 -56 -39 -56h-254q-93 0 -137 92q-34 69 -34 176h-105q-3 -145 52 -242q70 -123 219 -123h310q73 0 91 67q34 -67 95 -67h84zM479 -171v101h-95v-101h95z" />
    <glyph glyph-name="behinitialarabic" unicode="&#x628;" horiz-adv-x="311" arabic-form="initial" 
d="M281 130v4v14.5t-0.5 23.5t-0.5 34v43t-0.5 53.5t-0.5 62.5h-106q1 -14 1.5 -48.5t0.5 -51.5q1 -27 1 -99q0 -33 -19 -51t-49 -18h-118v-97h157q64 0 99 34.5t35 95.5zM184 -152v101h-96v-101h96z" />
    <glyph glyph-name="behmedialarabic" unicode="&#x628;" horiz-adv-x="465" arabic-form="medial" 
d="M472 0v25v47v25h-89q-30 0 -55 28q-31 31 -31 84q-3 101 -3 156h-105l2 -198q0 -35 -31 -54q-23 -16 -52 -16h-118v-97h158q42 1 76.5 23t47.5 58q6 -19 25 -43q32 -38 77 -38h98zM303 -152v101h-97v-101h97z" />
    <glyph glyph-name="tehmarbutafinalarabic" unicode="&#x629;" horiz-adv-x="517" arabic-form="final" 
d="M348 520v101h-96v-101h96zM203 520v101h-96v-101h96zM526 0v97h-102q-41 0 -41 50l-1 283h-105v-36h-2q-35 44 -97 44q-52 0 -93 -41q-51 -49 -51 -144q0 -145 119 -145h125q0 -108 106 -108h142zM278 205h-88q-46 0 -49 48q-5 80 64 80q44 0 72 -46z" />
    <glyph glyph-name="tehfinalarabic" unicode="&#x62a;" horiz-adv-x="876" arabic-form="final" 
d="M497 365v101h-96v-101h96zM353 365v101h-97v-101h97zM885 0v97h-91q-30 0 -55 28q-29 31 -31 84q0 27 -0.5 62t-1 57.5t-0.5 36.5h-106l3 -212q0 -56 -39 -56h-254q-93 0 -137 92q-34 69 -34 176h-105q-3 -145 52 -242q70 -123 219 -123h310q73 0 91 67q34 -67 95 -67h84
z" />
    <glyph glyph-name="tehinitialarabic" unicode="&#x62a;" horiz-adv-x="311" arabic-form="initial" 
d="M273 446v101h-96v-101h96zM128 446v101h-96v-101h96zM281 130v4v14.5t-0.5 23.5t-0.5 34v43t-0.5 53.5t-0.5 62.5h-106q1 -14 1.5 -48.5t0.5 -51.5q1 -27 1 -99q0 -33 -19 -51t-49 -18h-118v-97h157q64 0 99 34.5t35 95.5z" />
    <glyph glyph-name="tehmedialarabic" unicode="&#x62a;" horiz-adv-x="465" arabic-form="medial" 
d="M359 446v101h-97v-101h97zM214 446v101h-97v-101h97zM472 0v25v47v25h-89q-30 0 -55 28q-31 31 -31 84q-3 101 -3 156h-105l2 -198q0 -35 -31 -54q-23 -16 -52 -16h-118v-97h158q42 1 76.5 23t47.5 58q6 -19 25 -43q32 -38 77 -38h98z" />
    <glyph glyph-name="thehfinalarabic" unicode="&#x62b;" horiz-adv-x="876" arabic-form="final" 
d="M425 497v100h-97v-100h97zM497 365v100h-96v-100h96zM352 365v100h-96v-100h96zM885 0v97h-91q-30 0 -55 28q-29 31 -31 84q0 27 -0.5 62t-1 57.5t-0.5 36.5h-106l3 -212q0 -56 -39 -56h-254q-93 0 -137 92q-34 69 -34 176h-105q-3 -145 52 -242q70 -123 219 -123h310
q73 0 91 67q34 -67 95 -67h84z" />
    <glyph glyph-name="thehinitialarabic" unicode="&#x62b;" horiz-adv-x="311" arabic-form="initial" 
d="M202 578v100h-97v-100h97zM274 446v101h-96v-101h96zM129 446v101h-96v-101h96zM281 130v4v14.5t-0.5 23.5t-0.5 34v43t-0.5 53.5t-0.5 62.5h-106q1 -14 1.5 -48.5t0.5 -51.5q1 -27 1 -99q0 -33 -19 -51t-49 -18h-118v-97h157q64 0 99 34.5t35 95.5z" />
    <glyph glyph-name="thehmedialarabic" unicode="&#x62b;" horiz-adv-x="465" arabic-form="medial" 
d="M289 578v100h-97v-100h97zM361 446v101h-96v-101h96zM216 446v101h-96v-101h96zM473 0v25v47v25h-90q-30 0 -55 28q-31 31 -31 84q-3 101 -3 156h-105l2 -198q0 -35 -31 -54q-23 -16 -52 -16h-118v-97h158q42 1 76.5 23t47.5 58q6 -19 25 -43q32 -38 77 -38h99z" />
    <glyph glyph-name="jeemfinalarabic" unicode="&#x62c;" horiz-adv-x="642" arabic-form="final" 
d="M651 0q0 14 -1 25v47v25h-44q-27 0 -47 13q-31 18 -34 54q-13 114 -77 191q-69 85 -171 85q-91 0 -158 -58l38 -79q55 41 107 41q47 1 86 -28q50 -37 64 -120h-192q-83 0 -137 -65q-51 -61 -51 -145t59 -143q60 -60 144 -60h140v97h-132q-41 0 -73 29q-35 32 -35 81
q0 51 29 79.5t82 28.5h197q47 -98 150 -98h56zM356 -63v101h-96v-101h96z" />
    <glyph glyph-name="jeeminitialarabic" unicode="&#x62c;" horiz-adv-x="566" arabic-form="initial" 
d="M536 0q0 155 -58 253q-74 122 -220 122q-118 0 -177 -52l41 -82q41 34 133 34q143 0 173 -177h-440v-98h548zM323 -152v101h-96v-101h96z" />
    <glyph glyph-name="jeemmedialarabic" unicode="&#x62c;" horiz-adv-x="619" arabic-form="medial" 
d="M628 0v97h-98q-18 123 -79 193q-72 85 -193 85q-118 0 -177 -52l41 -82q41 34 133 34q144 0 174 -178h-439v-97h520h118zM323 -152v101h-96v-101h96z" />
    <glyph glyph-name="hahfinalarabic" unicode="&#x62d;" horiz-adv-x="642" arabic-form="final" 
d="M651 0q0 14 -1 25v47v25h-44q-27 0 -47 13q-31 18 -34 54q-13 114 -77 191q-69 85 -171 85q-91 0 -158 -58l38 -79q55 41 107 41q47 1 86 -28q50 -37 64 -120h-192q-83 0 -137 -65q-51 -61 -51 -145t59 -143q60 -60 144 -60h140v97h-132q-41 0 -73 29q-35 32 -35 81
q0 51 29 79.5t82 28.5h197q47 -98 150 -98h56z" />
    <glyph glyph-name="hahinitialarabic" unicode="&#x62d;" horiz-adv-x="566" arabic-form="initial" 
d="M536 0q0 155 -58 253q-74 122 -220 122q-118 0 -177 -52l41 -82q41 34 133 34q143 0 173 -177h-440v-98h548z" />
    <glyph glyph-name="hahmedialarabic" unicode="&#x62d;" horiz-adv-x="619" arabic-form="medial" 
d="M628 0v97h-98q-18 123 -79 193q-72 85 -193 85q-118 0 -177 -52l41 -82q41 34 133 34q144 0 174 -178h-439v-97h520h118z" />
    <glyph glyph-name="khahfinalarabic" unicode="&#x62e;" horiz-adv-x="642" arabic-form="final" 
d="M357 492v101h-97v-101h97zM651 0q0 14 -1 25v47v25h-44q-27 0 -47 13q-31 18 -34 54q-13 114 -77 191q-69 85 -171 85q-91 0 -158 -58l38 -79q55 41 107 41q47 1 86 -28q50 -37 64 -120h-192q-83 0 -137 -65q-51 -61 -51 -145t59 -143q60 -60 144 -60h140v97h-132
q-41 0 -73 29q-35 32 -35 81q0 51 29 79.5t82 28.5h197q47 -98 150 -98h56z" />
    <glyph glyph-name="khahinitialarabic" unicode="&#x62e;" horiz-adv-x="566" arabic-form="initial" 
d="M319 446v101h-97v-101h97zM536 0q0 155 -58 253q-74 122 -220 122q-118 0 -177 -52l41 -82q41 34 133 34q143 0 173 -177h-440v-98h548z" />
    <glyph glyph-name="khahmedialarabic" unicode="&#x62e;" horiz-adv-x="619" arabic-form="medial" 
d="M319 446v101h-97v-101h97zM628 0v97h-98q-18 123 -79 193q-72 85 -193 85q-118 0 -177 -52l41 -82q41 34 133 34q144 0 174 -178h-439v-97h520h118z" />
    <glyph glyph-name="dalfinalarabic" unicode="&#x62f;" horiz-adv-x="653" arabic-form="final" 
d="M662 0v97h-136q-17 134 -83 202q-63 66 -164 66v-95q40 0 81 -41q49 -49 58 -132h-278l-50 -97h572z" />
    <glyph glyph-name="thalfinalarabic" unicode="&#x630;" horiz-adv-x="653" arabic-form="final" 
d="M376 446v101h-97v-101h97zM662 0v97h-136q-17 134 -83 202q-63 66 -164 66v-95q40 0 81 -41q49 -49 58 -132h-278l-50 -97h572z" />
    <glyph glyph-name="rehfinalarabic" unicode="&#x631;" horiz-adv-x="467" arabic-form="final" 
d="M-47 -134q40 -48 66 -83q110 9 181.5 85.5t78.5 193.5q35 -62 93 -62h104v97h-111q-32 0 -57.5 30t-29.5 71v167h-106v-283q0 -93 -62 -153.5t-157 -62.5z" />
    <glyph glyph-name="zainfinalarabic" unicode="&#x632;" horiz-adv-x="467" arabic-form="final" 
d="M271 446v101h-97v-101h97zM-47 -134q40 -48 66 -83q110 9 181.5 85.5t78.5 193.5q35 -62 93 -62h104v97h-111q-32 0 -57.5 30t-29.5 71v167h-106v-283q0 -93 -62 -153.5t-157 -62.5z" />
    <glyph glyph-name="seenfinalarabic" unicode="&#x633;" horiz-adv-x="1262" arabic-form="final" 
d="M1280 0v97h-105q-29 0 -54 25q-31 29 -32 75q-2 154 -2 168h-105v-45t0.5 -39.5t0.5 -34v-28.5v-23v-18v-12.5v-6.5v-2q0 -67 -61 -67q-40 0 -65 27q-27 27 -29 84q-2 126 -2 136h-105q1 -105 1 -179q0 -68 -61 -68q-41 0 -66 27q-26 29 -28 85v135h-105q0 -10 0.5 -43
t1 -97.5t0.5 -130.5q0 -72 -48 -123q-47 -51 -113 -51q-67 0 -114 51q-47 50 -47 121q-1 60 -1 206h-107l4 -204q0 -117 78 -200t187 -83q110 0 187 83q70 74 77 174q42 -54 118 -53q95 2 127 79q42 -81 134 -79q104 1 133 95q13 -37 45 -60q28 -21 58 -21h98z" />
    <glyph glyph-name="seeninitialarabic" unicode="&#x633;" horiz-adv-x="779" arabic-form="initial" 
d="M744 150l-1 215h-106v-45t0.5 -39.5t0.5 -34v-28.5v-23v-18v-12.5v-6.5v-2q0 -67 -61 -67q-39 0 -65 27q-27 27 -29 84q0 24 -0.5 54.5t-1 50t-0.5 31.5h-105q1 -105 1 -179q0 -68 -61 -68q-40 0 -65 27q-24 24 -29 71v4v145h-106q2 -38 3 -239h-128l-1 -97h233v38
q43 -53 117 -52q95 2 128 79q40 -81 133 -79q141 3 143 164z" />
    <glyph glyph-name="seenmedialarabic" unicode="&#x633;" horiz-adv-x="919" arabic-form="medial" 
d="M935 0v97h-105q-29 0 -54 25q-31 29 -32 75q-2 154 -2 168h-105v-45t0.5 -39.5t0.5 -34v-28.5v-23v-18v-12.5v-6.5v-2q0 -67 -61 -67q-39 0 -65 27q-27 27 -29 84q-2 126 -2 136h-105q1 -105 1 -179q0 -68 -61 -68q-40 0 -66 27q-23 25 -28 71v4v145h-105
q0 -10 0.5 -39.5t1 -86.5t0.5 -113h-128l-1 -97h233v38q43 -53 117 -52q95 2 127 79q42 -81 134 -79q104 1 133 95q14 -37 45 -60q29 -21 58 -21h98z" />
    <glyph glyph-name="sheenfinalarabic" unicode="&#x634;" horiz-adv-x="1262" arabic-form="final" 
d="M1280 0v97h-105q-29 0 -54 25q-31 29 -32 75q-2 154 -2 168h-105v-45t0.5 -39.5t0.5 -34v-28.5v-23v-18v-12.5v-6.5v-2q0 -67 -61 -67q-40 0 -65 27q-27 27 -29 84q-2 126 -2 136h-105q1 -105 1 -179q0 -68 -61 -68q-41 0 -66 27q-26 29 -28 85v135h-105q0 -10 0.5 -43
t1 -97.5t0.5 -130.5q0 -72 -48 -123q-47 -51 -113 -51q-67 0 -114 51q-47 50 -47 121q-1 60 -1 206h-107l4 -204q0 -117 78 -200t187 -83q110 0 187 83q70 74 77 174q42 -54 118 -53q95 2 127 79q42 -81 134 -79q104 1 133 95q13 -37 45 -60q28 -21 58 -21h98zM893 446v101
h-97v-101h97zM748 446v101h-97v-101h97zM820 578v100h-96v-100h96z" />
    <glyph glyph-name="sheeninitialarabic" unicode="&#x634;" horiz-adv-x="779" arabic-form="initial" 
d="M744 150l-1 215h-106v-45t0.5 -39.5t0.5 -34v-28.5v-23v-18v-12.5v-6.5v-2q0 -67 -61 -67q-39 0 -65 27q-27 27 -29 84q0 24 -0.5 54.5t-1 50t-0.5 31.5h-105q1 -105 1 -179q0 -68 -61 -68q-40 0 -65 27q-24 24 -29 71v4v145h-106q2 -38 3 -239h-128l-1 -97h233v38
q43 -53 117 -52q95 2 128 79q40 -81 133 -79q141 3 143 164zM548 446v101h-97v-101h97zM403 446v101h-97v-101h97zM475 578v100h-96v-100h96z" />
    <glyph glyph-name="sheenmedialarabic" unicode="&#x634;" horiz-adv-x="919" arabic-form="medial" 
d="M935 0v97h-105q-29 0 -54 25q-31 29 -32 75q-2 154 -2 168h-105v-45t0.5 -39.5t0.5 -34v-28.5v-23v-18v-12.5v-6.5v-2q0 -67 -61 -67q-39 0 -65 27q-27 27 -29 84q-2 126 -2 136h-105q1 -105 1 -179q0 -68 -61 -68q-40 0 -66 27q-23 25 -28 71v4v145h-105
q0 -10 0.5 -39.5t1 -86.5t0.5 -113h-128l-1 -97h233v38q43 -53 117 -52q95 2 127 79q42 -81 134 -79q104 1 133 95q14 -37 45 -60q29 -21 58 -21h98zM548 446v101h-97v-101h97zM403 446v101h-97v-101h97zM475 578v100h-96v-100h96z" />
    <glyph glyph-name="sadfinalarabic" unicode="&#x635;" horiz-adv-x="1243" arabic-form="final" 
d="M1258 0v97h-181q-22 249 -209 269q-65 7 -146 -37q-102 -56 -155 -170l-1 111h-107l5 -205q0 -72 -48 -123q-47 -51 -113 -51q-67 0 -114 51q-47 50 -47 121q-1 60 -1 206h-107l4 -204q0 -117 78 -200t187 -83q110 0 187 83q56 59 71 135h697zM974 97h-353
q90 175 221 175q7 0 23 -2q70 -7 96 -92q11 -33 13 -81z" />
    <glyph glyph-name="sadinitialarabic" unicode="&#x635;" horiz-adv-x="774" arabic-form="initial" 
d="M740 0q0 153 -34 234q-51 118 -179 132q-67 7 -148 -37q-105 -59 -157 -177v118h-105l2 -173h-128l-1 -97h750zM633 101v-4h-353q90 175 221 175q7 0 23 -2q66 -8 93 -81q16 -39 16 -88z" />
    <glyph glyph-name="sadmedialarabic" unicode="&#x635;" horiz-adv-x="900" arabic-form="medial" 
d="M917 0v97h-181q-22 249 -209 269q-65 7 -146 -37q-104 -57 -159 -178v119h-105l2 -173h-128l-1 -97h927zM633 97h-353q90 175 221 175q7 0 23 -2q70 -7 96 -92q11 -33 13 -81z" />
    <glyph glyph-name="dadfinalarabic" unicode="&#x636;" horiz-adv-x="1243" arabic-form="final" 
d="M1258 0v97h-181q-22 249 -209 269q-65 7 -146 -37q-102 -56 -155 -170l-1 111h-107l5 -205q0 -72 -48 -123q-47 -51 -113 -51q-67 0 -114 51q-47 50 -47 121q-1 60 -1 206h-107l4 -204q0 -117 78 -200t187 -83q110 0 187 83q56 59 71 135h697zM974 97h-353
q90 175 221 175q7 0 23 -2q70 -7 96 -92q11 -33 13 -81zM880 446v101h-96v-101h96z" />
    <glyph glyph-name="dadinitialarabic" unicode="&#x636;" horiz-adv-x="774" arabic-form="initial" 
d="M740 0q0 153 -34 234q-51 118 -179 132q-67 7 -148 -37q-105 -59 -157 -177v118h-105l2 -173h-128l-1 -97h750zM633 101v-4h-353q90 175 221 175q7 0 23 -2q66 -8 93 -81q16 -39 16 -88zM539 446v101h-96v-101h96z" />
    <glyph glyph-name="dadmedialarabic" unicode="&#x636;" horiz-adv-x="900" arabic-form="medial" 
d="M917 0v97h-181q-22 249 -209 269q-65 7 -146 -37q-104 -57 -159 -178v119h-105l2 -173h-128l-1 -97h927zM633 97h-353q90 175 221 175q7 0 23 -2q70 -7 96 -92q11 -33 13 -81zM539 446v101h-96v-101h96z" />
    <glyph glyph-name="tahfinalarabic" unicode="&#x637;" horiz-adv-x="810" arabic-form="final" 
d="M819 0v97h-148q-24 270 -231 270q-52 0 -99 -21q-57 -25 -90 -77l5 324h-103l1 -495h-95l-37 -98h797zM569 97h-334q63 175 202 175q132 0 132 -175z" />
    <glyph glyph-name="tahinitialarabic" unicode="&#x637;" horiz-adv-x="642" arabic-form="initial" 
d="M612 0q0 367 -237 367q-106 0 -189 -95l5 321h-103l2 -496h-99v-97h621zM505 97h-333q61 175 201 175q131 0 132 -175z" />
    <glyph glyph-name="tahmedialarabic" unicode="&#x637;" horiz-adv-x="745" arabic-form="medial" 
d="M754 0v97h-146q-26 270 -234 270q-117 0 -189 -95l6 321h-104l3 -496h-100v-97h764zM503 97h-333q61 175 202 175q130 0 131 -175z" />
    <glyph glyph-name="zahfinalarabic" unicode="&#x638;" horiz-adv-x="810" arabic-form="final" 
d="M497 446v101h-97v-101h97zM819 0v97h-148q-24 270 -231 270q-52 0 -99 -21q-57 -25 -90 -77l5 324h-103l1 -495h-95l-37 -98h797zM569 97h-334q63 175 202 175q133 0 132 -175z" />
    <glyph glyph-name="zahinitialarabic" unicode="&#x638;" horiz-adv-x="637" arabic-form="initial" 
d="M410 446v101h-95v-101h95zM612 0q0 367 -237 367q-106 0 -189 -95l5 321h-103l2 -496h-99v-97h621zM505 97h-333q61 175 201 175q135 0 132 -175z" />
    <glyph glyph-name="zahmedialarabic" unicode="&#x638;" horiz-adv-x="745" arabic-form="medial" 
d="M410 446v101h-95v-101h95zM754 0v97h-146q-26 270 -234 270q-117 0 -189 -95l6 321h-104l3 -496h-100v-97h764zM503 97h-333q61 175 202 175q132 0 131 -175z" />
    <glyph glyph-name="ainfinalarabic" unicode="&#x639;" horiz-adv-x="569" arabic-form="final" 
d="M578 0v25v47v25h-80q-47 0 -70 56h56v99h-90q-47 0 -81 20q-40 25 -40 72q0 33 21 54t53 21q36 0 74 -35l55 74q-52 64 -141 64q-66 0 -113 -38q-56 -46 -55 -123q0 -49 21 -83q10 -16 21 -26q-78 -4 -128 -69q-47 -62 -47 -142q0 -84 59 -143q60 -60 144 -60h156v97
h-148q-41 0 -73 30q-35 32 -35 80q0 51 29 79.5t82 28.5h71q18 -67 58 -106q45 -47 111 -47h90z" />
    <glyph glyph-name="aininitialarabic" unicode="&#x639;" horiz-adv-x="501" arabic-form="initial" 
d="M471 0l-35 98h-102q-52 0 -83.5 27t-31.5 74q0 33 20.5 54t52.5 21q42 0 74 -38l56 77q-53 65 -141 65q-67 0 -115 -39q-57 -45 -56 -123q0 -47 23 -88q8 -18 21 -31h-163v-97h480z" />
    <glyph glyph-name="ainmedialarabic" unicode="&#x639;" horiz-adv-x="635" arabic-form="medial" 
d="M644 0v97h-158q-40 0 -59 10q105 87 167 206q-52 51 -127 80t-158 29q-139 0 -250 -81v-82q109 -6 219 -137q-57 -25 -114 -25h-173v-97h174q83 0 172 48q41 -48 102 -48h205zM459 284q-37 -62 -99 -108q-75 103 -159 125q51 23 110 23q95 0 148 -40z" />
    <glyph glyph-name="ghainfinalarabic" unicode="&#x63a;" horiz-adv-x="569" arabic-form="final" 
d="M372 566v101h-96v-101h96zM578 0v25v47v25h-80q-47 0 -70 56h56v99h-90q-47 0 -81 20q-40 25 -40 72q0 33 21 54t53 21q36 0 74 -35l55 74q-52 64 -141 64q-66 0 -113 -38q-56 -46 -55 -123q0 -49 21 -83q10 -16 21 -26q-78 -4 -128 -69q-47 -62 -47 -142q0 -84 59 -143
q60 -60 144 -60h156v97h-148q-41 0 -73 30q-35 32 -35 80q0 51 29 79.5t82 28.5h71q18 -67 58 -106q45 -47 111 -47h90z" />
    <glyph glyph-name="ghaininitialarabic" unicode="&#x63a;" horiz-adv-x="501" arabic-form="initial" 
d="M320 446v101h-97v-101h97zM471 0l-35 98h-102q-52 0 -83.5 27t-31.5 74q0 33 20.5 54t52.5 21q42 0 74 -38l56 77q-53 65 -141 65q-67 0 -115 -39q-57 -45 -56 -123q0 -47 23 -88q8 -18 21 -31h-163v-97h480z" />
    <glyph glyph-name="ghainmedialarabic" unicode="&#x63a;" horiz-adv-x="635" arabic-form="medial" 
d="M377 490v101h-97v-101h97zM644 0v97h-158q-40 0 -59 10q105 87 167 206q-52 51 -127 80t-158 29q-139 0 -250 -81v-82q109 -6 219 -137q-57 -25 -114 -25h-173v-97h174q83 0 172 48q41 -48 102 -48h205zM459 284q-37 -62 -99 -108q-75 103 -159 125q51 23 110 23
q95 0 148 -40z" />
    <glyph glyph-name="fehfinalarabic" unicode="&#x641;" horiz-adv-x="878" arabic-form="final" 
d="M658 514v101h-97v-101h97zM887 0v97h-56q-63 0 -105 8q70 70 70 158q0 82 -56 130q-53 44 -129 44q-77 0 -127 -44q-56 -48 -56 -130q0 -89 70 -158q-42 -8 -67 -8h-121q-93 0 -137 92q-34 69 -34 176h-105q-3 -146 52 -243q70 -123 219 -123q43 0 71 1h73q82 0 163 34
q83 -34 166 -34h109zM690 267q0 -47 -33 -89q-29 -33 -45 -33t-45 33q-33 42 -33 89q0 38 21 64t56 26q36 0 57.5 -26t21.5 -64z" />
    <glyph glyph-name="fehinitialarabic" unicode="&#x641;" horiz-adv-x="416" arabic-form="initial" 
d="M264 589v101h-97v-101h97zM386 88v291q-2 145 -171 159q-66 5 -119 -39q-65 -53 -68 -149q-3 -70 42 -123q48 -56 122 -56h86v-28q-1 -46 -40 -46h-248v-97h306q46 0 68.5 22t21.5 66zM278 267h-70q-33 0 -55.5 26t-21.5 63q3 49 24.5 78t56.5 29q32 0 50 -27
q15 -21 15 -34q0 -53 1 -135z" />
    <glyph glyph-name="fehmedialarabic" unicode="&#x641;" horiz-adv-x="500" arabic-form="medial" 
d="M279 514v101h-96v-101h96zM509 0v97h-56q-62 0 -105 8q70 70 70 158q0 82 -57 130q-52 44 -128 44t-128 -44q-56 -48 -56 -130q0 -89 71 -158q-40 -8 -103 -8h-27v-97h81q82 0 163 34q81 -34 165 -34h110zM312 267q0 -47 -33 -89q-27 -33 -45 -33t-45 33q-34 41 -34 89
q0 38 21.5 64t57.5 26t58 -28q20 -26 20 -62z" />
    <glyph glyph-name="qaffinalarabic" unicode="&#x642;" horiz-adv-x="733" arabic-form="final" 
d="M559 446v101h-97v-101h97zM414 446v101h-97v-101h97zM741 0v97h-132v111q0 145 -172 158q-66 5 -119 -38q-65 -53 -68 -150q-3 -70 42 -123q48 -56 123 -56h34q18 1 39 1q-48 -105 -161 -105q-79 0 -134 61q-54 60 -54 147v117h-105v-127q0 -143 85 -228q81 -82 207 -82
q105 0 177.5 58t95.5 159h142zM501 96h-71q-32 0 -54.5 25.5t-21.5 62.5q2 50 23.5 78.5t56.5 28.5q32 0 50 -26q15 -22 15 -35q0 -3 0.5 -18.5t1 -48t0.5 -67.5z" />
    <glyph glyph-name="qafinitialarabic" unicode="&#x642;" horiz-adv-x="416" arabic-form="initial" 
d="M330 589v101h-96v-101h96zM185 589v101h-96v-101h96zM386 88v291q-2 145 -171 159q-66 5 -119 -39q-65 -53 -68 -149q-3 -70 42 -123q48 -56 122 -56h86v-28q-1 -46 -40 -46h-248v-97h306q46 0 68.5 22t21.5 66zM278 267h-70q-33 0 -55.5 26t-21.5 63q3 49 24.5 78
t56.5 29q32 0 50 -27q15 -21 15 -34q0 -53 1 -135z" />
    <glyph glyph-name="qafmedialarabic" unicode="&#x642;" horiz-adv-x="500" arabic-form="medial" 
d="M351 514v101h-96v-101h96zM206 514v101h-96v-101h96zM509 0v97h-56q-62 0 -105 8q70 70 70 158q0 82 -57 130q-52 44 -128 44t-128 -44q-56 -48 -56 -130q0 -89 71 -158q-40 -8 -103 -8h-27v-97h81q82 0 163 34q81 -34 165 -34h110zM312 267q0 -47 -33 -89
q-27 -33 -45 -33t-45 33q-34 41 -34 89q0 38 21.5 64t57.5 26t58 -28q20 -26 20 -62z" />
    <glyph glyph-name="kaffinalarabic" unicode="&#x643;" horiz-adv-x="875" arabic-form="final" 
d="M491 325v65h-44q-27 0 -40 13q-10 10 -10 23q1 16 7.5 23t18.5 6q17 -2 34 -17l32 48q-30 36 -69 36q-38 0 -63 -27t-25 -66q0 -24 12 -39h-56l-30 -65h233zM884 0v25v47v25h-91q-28 0 -54 26q-31 32 -32 80l-5 446h-106q7 -449 7 -496q0 -56 -39 -56h-254q-93 0 -137 92
q-34 69 -34 176h-105q-3 -145 52 -242q70 -123 219 -123h310q72 0 90 66q35 -66 95 -66h84z" />
    <glyph glyph-name="kafinitialarabic" unicode="&#x643;" horiz-adv-x="537" arabic-form="initial" 
d="M507 0q0 159 -60 253q-70 112 -219 112l137 135l-74 73l-269 -271l39 -82q74 47 149 47q73 0 122 -42q53 -46 65 -127h-407v-98h517z" />
    <glyph glyph-name="kafmedialarabic" unicode="&#x643;" horiz-adv-x="671" arabic-form="medial" 
d="M680 0v97h-181q-39 268 -272 268l138 135l-75 73l-269 -271l39 -82q73 47 149 47q71 0 121 -42q54 -46 67 -128h-407v-97h690z" />
    <glyph glyph-name="lamfinalarabic" unicode="&#x644;" horiz-adv-x="734" arabic-form="final" 
d="M34 269q4 -198 4 -204q0 -116 78 -199.5t187 -83.5q108 0 185.5 81.5t79.5 195.5q35 -59 91 -59h85q0 14 -1 25v72h-90q-32 0 -58.5 27.5t-27.5 64.5l-3 469h-107l7 -593q0 -70 -47.5 -122t-113.5 -52t-114 51q-12 13 -19.5 22t-13 22t-8 19.5t-4 26.5t-2 30.5t-1 43
t-0.5 53.5l-2 110h-105z" />
    <glyph glyph-name="laminitialarabic" unicode="&#x644;" horiz-adv-x="261" arabic-form="initial" 
d="M231 130q0 42 -2 258q0 47 -0.5 108.5t-1 96t-0.5 54.5h-105q0 -19 2 -241q2 -196 2 -240q0 -33 -19 -51t-49 -18h-68v-97h106q65 0 100 34.5t35 95.5z" />
    <glyph glyph-name="lammedialarabic" unicode="&#x644;" horiz-adv-x="404" arabic-form="medial" 
d="M413 0v97h-75q-33 0 -59 32.5t-27 79.5q-5 150 -5 440h-105l4 -482q0 -30 -25.5 -50t-57.5 -20h-73v-97h113q41 0 76 22.5t49 58.5q11 -35 39.5 -58t61.5 -23h84z" />
    <glyph glyph-name="meemfinalarabic" unicode="&#x645;" horiz-adv-x="765" arabic-form="final" 
d="M775 0v97q-129 -5 -159 130q-14 63 -59 103q-52 46 -127 46q-134 0 -171 -115h-54h-40q-133 0 -131 -131l5 -347h105l-4 291q-1 40 7 59q13 24 51 24h52q11 -67 58 -110q52 -47 130 -47q112 0 159 87q56 -89 160 -87h18zM516 187q0 -47 -21.5 -74t-55.5 -27q-33 0 -55 25
q-26 29 -26 76t23 76q21 25 53 25q34 0 56 -25q26 -29 26 -76z" />
    <glyph glyph-name="meeminitialarabic" unicode="&#x645;" horiz-adv-x="492" arabic-form="initial" 
d="M462 188q0 74 -48 128q-56 60 -142 60t-134 -50t-48 -138q0 -47 21 -91h-121v-97h294q84 0 131 50.5t47 137.5zM358 187q0 -47 -21.5 -74t-55.5 -27q-33 0 -55 25q-26 29 -26 76q0 48 22 76q21 25 55 25q33 0 55 -25q26 -29 26 -76z" />
    <glyph glyph-name="meemmedialarabic" unicode="&#x645;" horiz-adv-x="527" arabic-form="medial" 
d="M535 0v97h-82q0 74 -50 129q-53 59 -141 59q-85 0 -134 -50.5t-49 -137.5h-89v-97h115q52 -91 165 -91q119 0 162 91h103zM348 97q0 -47 -21.5 -74t-55.5 -27q-33 0 -55 25q-26 29 -26 76t23 75q21 25 54 25t55 -25q26 -29 26 -75z" />
    <glyph glyph-name="noonfinalarabic" unicode="&#x646;" horiz-adv-x="734" arabic-form="final" 
d="M347 364v101h-97v-101h97zM743 0v97h-90q-28 0 -52 25q-30 30 -34 74l-1 74h-107l5 -205q1 -70 -47 -122q-46 -52 -114 -52q-67 0 -114 51q-47 50 -47 121q0 36 -1 96v110h-107q0 -5 0.5 -18t1 -39t0.5 -52q0 -23 0.5 -45.5t1 -34t0.5 -15.5q0 -117 78 -200t187 -83
t185 81q79 82 80 196q35 -59 91 -59h84z" />
    <glyph glyph-name="nooninitialarabic" unicode="&#x646;" horiz-adv-x="311" arabic-form="initial" 
d="M271 445v101h-97v-101h97zM281 130v4v14.5t-0.5 23.5t-0.5 34v43t-0.5 53.5t-0.5 62.5h-106q1 -14 1.5 -48.5t0.5 -51.5q1 -27 1 -99q0 -33 -19 -51t-49 -18h-118v-97h157q64 0 99 34.5t35 95.5z" />
    <glyph glyph-name="noonmedialarabic" unicode="&#x646;" horiz-adv-x="465" arabic-form="medial" 
d="M288 445v101h-97v-101h97zM473 0v25v47v25h-90q-30 0 -55 28q-31 31 -31 84q-3 101 -3 156h-105l2 -198q0 -35 -31 -54q-23 -16 -52 -16h-118v-97h158q42 1 76.5 23t47.5 58q6 -19 25 -43q32 -38 77 -38h99z" />
    <glyph glyph-name="hehfinalarabic" unicode="&#x647;" horiz-adv-x="517" arabic-form="final" 
d="M526 0v97h-102q-41 0 -41 50l-1 283h-105v-36h-2q-35 44 -97 44q-52 0 -93 -41q-51 -49 -51 -144q0 -145 119 -145h125q0 -108 106 -108h142zM278 205h-88q-46 0 -49 48q-5 80 64 80q44 0 72 -46z" />
    <glyph glyph-name="hehinitialarabic" unicode="&#x647;" horiz-adv-x="709" arabic-form="initial" 
d="M679 0q0 154 -87 272q-104 143 -280 143q-118 0 -257 -65l45 -97q14 7 59 25q-12 -33 -12 -74q0 -58 33 -107h-190v-97h689zM558 98h-94q25 43 25 104q0 16 -3 31q56 -59 72 -135zM393 204q0 -50 -19.5 -78t-51.5 -28q-29 0 -50 27q-23 29 -23 79q0 48 23 80q20 26 47 26
q29 0 50 -26q24 -31 24 -80z" />
    <glyph glyph-name="hehmedialarabic" unicode="&#x647;" horiz-adv-x="792" arabic-form="medial" 
d="M801 0v97h-133q-29 132 -111 217q-99 101 -246 101q-118 0 -257 -65l45 -97q14 7 59 25q-11 -35 -11 -74q0 -60 31 -107h-188v-97h811zM557 97h-94q25 43 25 104q0 16 -3 31q55 -58 72 -135zM392 204q0 -50 -19.5 -78t-50.5 -28q-30 0 -50 27q-24 29 -24 79q0 48 23 80
q20 26 47 26q29 0 50 -26q24 -31 24 -80z" />
    <glyph glyph-name="wawfinalarabic" unicode="&#x648;" horiz-adv-x="584" arabic-form="final" 
d="M594 0v97h-134v112q0 73 -45.5 115.5t-126.5 42.5q-79 0 -133 -52.5t-54 -135.5q0 -73 47.5 -126t119.5 -53h70q-24 -62 -78.5 -98t-123.5 -36l65 -83q95 8 160.5 65.5t88.5 151.5h144zM354 97h-71q-31 0 -53.5 25.5t-22.5 61.5q0 49 23 79t58 30q24 0 44.5 -21.5
t20.5 -39.5q0 -53 1 -135z" />
    <glyph glyph-name="alefmaksurafinalarabic" unicode="&#x649;" horiz-adv-x="852" arabic-form="final" 
d="M860 0v97h-45q-63 0 -81 64q-26 95 -60 146q-66 93 -185 93q-109 0 -174 -78q-66 -82 -66 -233h213l1 -23q0 -82 -54 -132q-46 -43 -107 -43q-58 0 -105 43q-55 49 -55 130q0 3 -0.5 9.5t-1 19t-0.5 24.5q-1 29 -1 70h-105l2.5 -69.5t1.5 -52.5q0 -117 78 -200t187 -83
q110 0 187 83q78 83 78 199v123h-192q35 104 118 105q110 2 147 -174q11 -43 40 -75q40 -43 98 -43h81z" />
    <glyph glyph-name="yehfinalarabic" unicode="&#x64a;" horiz-adv-x="845" arabic-form="final" 
d="M860 0v97h-45q-63 0 -81 64q-26 95 -60 146q-66 93 -185 93q-109 0 -174 -78q-66 -82 -66 -233h213l1 -23q0 -82 -54 -132q-46 -43 -107 -43q-58 0 -105 43q-55 49 -55 130q0 3 -0.5 9.5t-1 19t-0.5 24.5q-1 29 -1 70h-105l2.5 -69.5t1.5 -52.5q0 -117 78 -200t187 -83
q110 0 187 83q78 83 78 199v123h-192q35 104 118 105q110 2 147 -174q11 -43 40 -75q40 -43 98 -43h81zM436 -393v101h-96v-101h96zM291 -393v101h-96v-101h96z" />
    <glyph glyph-name="yehinitialarabic" unicode="&#x64a;" horiz-adv-x="311" arabic-form="initial" 
d="M281 130v4v14.5t-0.5 23.5t-0.5 34v43t-0.5 53.5t-0.5 62.5h-106q1 -14 1.5 -48.5t0.5 -51.5q1 -27 1 -99q0 -33 -19 -51t-49 -18h-118v-97h157q64 0 99 34.5t35 95.5zM228 -152v101h-96v-101h96zM84 -152v101h-97v-101h97z" />
    <glyph glyph-name="yehmedialarabic" unicode="&#x64a;" horiz-adv-x="454" arabic-form="medial" 
d="M463 0v25v47v25h-80q-30 0 -55 28q-31 31 -31 84q-3 101 -3 156h-105l2 -198q0 -35 -31 -54q-23 -16 -52 -16h-118v-97h158q42 1 76.5 23t47.5 58q6 -19 25 -43q32 -38 77 -38h89zM340 -152v101h-96v-101h96zM196 -152v101h-97v-101h97z" />
    <glyph glyph-name=".notdef" horiz-adv-x="500" 
d="M63 0h375v750h-375v-750zM125 63v625h250v-625h-250z" />
    <glyph glyph-name=".null" 
 />
    <glyph glyph-name="nonmarkingreturn" horiz-adv-x="333" 
 />
    <glyph glyph-name="space" unicode=" " horiz-adv-x="220" 
 />
    <glyph glyph-name="exclam" unicode="!" horiz-adv-x="285" 
d="M195 146l-5 451h-95l5 -451h95zM194 -1v98h-94v-98h94z" />
    <glyph glyph-name="quotedbl" unicode="&#x22;" horiz-adv-x="298" 
d="M134 418h-67v201h67v-201zM234 418h-67v201h67v-201z" />
    <glyph glyph-name="dollar" unicode="$" horiz-adv-x="479" 
d="M420 159q-2 69 -40 110q-28 31 -91 62l-3 187q41 -3 92 -33l31 77q-61 42 -124 47l-1 55h-79l1 -58q-61 -9 -101 -52q-41 -42 -39 -102q0 -116 141 -176l2 -196q-69 9 -112 38l-37 -75q73 -49 148 -51v-81h81l-1 80q66 14 100 63q32 47 32 105zM207 378q-49 22 -50 67
q0 60 48 70zM334 153q1 -22 -11.5 -44t-32.5 -30l-2 145q41 -21 46 -71z" />
    <glyph glyph-name="quotesingle" unicode="'" horiz-adv-x="162" 
d="M184 809h-120l-5 -205h33z" />
    <glyph glyph-name="parenleft" unicode="(" horiz-adv-x="342" 
d="M285 588l-96 40q-84 -94 -121 -170q-46 -92 -46 -203q0 -181 157 -362l98 40q-149 176 -149 316q0 92 45 185q42 84 112 154z" />
    <glyph glyph-name="parenright" unicode=")" horiz-adv-x="342" 
d="M320 255q0 111 -46 203q-37 76 -121 170l-96 -40q73 -73 112 -154q46 -92 46 -185q0 -140 -149 -316l97 -40q157 181 157 362z" />
    <glyph glyph-name="at" unicode="*" horiz-adv-x="479" 
d="M387 145v50l-118 -11l67 95l-45 29l-51 -110l-49 110l-50 -30l68 -95l-117 12v-52l117 8l-66 -97l48 -29l49 109l52 -104l50 24l-70 98z" />
    <glyph glyph-name="plus" unicode="+" horiz-adv-x="517" 
d="M477 171v94h-171v171h-94v-171h-171v-94h171v-172h94v172h171z" />
    <glyph glyph-name="hyphen" unicode="-" horiz-adv-x="517" 
d="M477 190v94h-436v-94h436z" />
    <glyph glyph-name="period" unicode="." horiz-adv-x="173" 
d="M123 -1v98h-94v-98h94z" />
    <glyph glyph-name="slash" unicode="/" horiz-adv-x="383" 
d="M383 597l-89 43l-263 -618l89 -44z" />
    <glyph glyph-name="zero" unicode="0" horiz-adv-x="295" 
d="M207 119v138l-119 -52v-138z" />
    <glyph glyph-name="one" unicode="1" horiz-adv-x="240" 
d="M174 51l-4 568h-104l5 -619z" />
    <glyph glyph-name="two" unicode="2" horiz-adv-x="480" 
d="M414 533v87h-152q-102 0 -147 -42q-50 -44 -48 -146l6 -432l104 53q-4 283 -4 324q-1 86 28 122q28 34 110 34h103z" />
    <glyph glyph-name="three" unicode="3" horiz-adv-x="551" 
d="M485 448q0 32 -2 172h-88q1 -56 1 -125q1 -31 -1 -47q-4 -31 -25 -31t-40 23q0 40 -2 180h-89q2 -112 2 -125q1 -31 -1 -47q-4 -31 -25 -31q-7 0 -12 1.5t-10 4.5t-7 5l-6.5 6.5l-5.5 5.5l-3 179h-105l5 -620l105 54l-2 293h1q23 -24 60 -24q60 0 75 45q28 -43 82 -43
q53 0 74 38q19 34 19 86z" />
    <glyph glyph-name="four" unicode="4" horiz-adv-x="464" 
d="M398 97q-66 1 -100 0q-43 -1 -77 14q-47 23 -48 75q-1 73 55 103q42 21 130 21q0 90 -1 91q-55 -6 -71 -6q-92 0 -93 58q-1 35 20.5 55t64.5 25q35 4 80 1v86q-17 4 -48 4q-32 0 -59 -4q-73 -10 -121 -60q-47 -50 -47 -114q0 -47 31 -78q26 -26 41 -23q-89 -48 -88 -163
q0 -79 58 -131t154 -52q55 0 62 1z" />
    <glyph glyph-name="five" unicode="5" horiz-adv-x="506" 
d="M440 248q0 63 -45 132q-53 84 -144 121q-87 -35 -140 -119q-45 -70 -45 -134q0 -77 42.5 -126.5t111.5 -55.5q18 -5 62 0q70 6 113 57q45 51 45 125zM340 263q0 -41 -21 -66q-18 -25 -45 -29q-28 -4 -43 0q-27 4 -45 29q-20 27 -19 66q0 37 27 77q27 42 59 57
q30 -13 59 -57q28 -41 28 -77z" />
    <glyph glyph-name="six" unicode="6" horiz-adv-x="480" 
d="M414 53q-2 362 -3 383q-2 103 -50 144q-46 40 -149 40h-146v-87h87q85 0 117 -31q36 -34 37 -121l2 -381z" />
    <glyph glyph-name="seven" unicode="7" horiz-adv-x="552" 
d="M486 546l-85 76l-125 -423l-125 423l-85 -76l160 -545h100z" />
    <glyph glyph-name="eight" unicode="8" horiz-adv-x="552" 
d="M486 78l-160 544h-100l-160 -544l85 -77l125 422l125 -422z" />
    <glyph glyph-name="nine" unicode="9" horiz-adv-x="514" 
d="M448 51l-1 330q-1 241 -199 241q-75 0 -129 -54q-53 -55 -53 -129q0 -83 45.5 -131.5t126.5 -50.5q57 -1 106 38l2 -295zM334 434q0 -30 -21 -56q-23 -27 -58 -27q-33 -1 -57.5 23.5t-24.5 59.5q-1 43 21 68.5t61 25.5q36 0 57.5 -26.5t21.5 -67.5z" />
    <glyph glyph-name="colon" unicode=":" horiz-adv-x="201" 
d="M151 176v98h-94v-98h94zM151 -1v98h-94v-98h94z" />
    <glyph glyph-name="less" unicode="&#x3c;" horiz-adv-x="542" 
d="M467 -10l-234 233l234 234h-109l-234 -234l234 -233h109z" />
    <glyph glyph-name="equal" unicode="=" horiz-adv-x="590" 
d="M513 262v94h-436v-94h436zM513 90v94h-436v-94h436z" />
    <glyph glyph-name="greater" unicode="&#x3e;" horiz-adv-x="542" 
d="M418 223l-234 234h-99l234 -234l-234 -233h99z" />
    <glyph glyph-name="bracketleft" unicode="[" horiz-adv-x="287" 
d="M206 -88v88h-75l-5 521h77v88h-183l5 -697h181z" />
    <glyph glyph-name="backslash" unicode="\" horiz-adv-x="383" 
d="M367 22l-263 618l-88 -43l262 -619z" />
    <glyph glyph-name="bracketright" unicode="]" horiz-adv-x="287" 
d="M267 -88l-5 697h-217v-88h112l5 -521h-114v-88h219z" />
    <glyph glyph-name="underscore" unicode="_" horiz-adv-x="382" 
d="M365 -90v74h-349v-74h349z" />
    <glyph glyph-name="braceleft" unicode="{" horiz-adv-x="352" 
d="M307 -74q0 10 -1 13q-67 1 -93.5 17t-22.5 60v163q0 43 -58 80q58 45 58 80v163q0 49 24 63q23 17 91 17v7q0 15 -1 23q-200 0 -200 -110v-163q0 -24 -17 -45q-16 -21 -49 -35h-2q68 -44 68 -80v-163q0 -54 34 -78q31 -27 115 -27l53 2q1 4 1 13z" />
    <glyph glyph-name="bar" unicode="|" horiz-adv-x="130" 
d="M34 -97h63v715h-63v-715z" />
    <glyph glyph-name="braceright" unicode="}" horiz-adv-x="352" 
d="M35 -74q0 10 1 13q67 1 93.5 17t22.5 60v163q0 43 58 80q-58 45 -58 80v163q0 49 -24 63q-23 17 -91 17v7q0 15 1 23q200 0 200 -110v-163q0 -24 17 -45q16 -21 49 -35h2q-68 -44 -68 -80v-163q0 -54 -34 -78q-31 -27 -115 -27l-53 2q-1 4 -1 13z" />
    <glyph glyph-name="nbspace" unicode="&#xa0;" horiz-adv-x="623" 
 />
    <glyph glyph-name="guillemotleft" unicode="&#xab;" horiz-adv-x="383" 
d="M333 325l-68 18q-42 -47 -60 -84q-22 -45 -22 -100q0 -89 77 -180l68 21q-74 89 -74 157q0 90 79 168zM198 325l-68 18q-42 -48 -59 -84q-23 -48 -23 -100q0 -90 78 -180l68 21q-75 88 -75 157q0 90 79 168z" />
    <glyph glyph-name="guillemotright" unicode="&#xbb;" horiz-adv-x="383" 
d="M333 159q0 52 -23 100q-17 36 -59 84l-68 -18q79 -78 79 -168q0 -69 -75 -157l68 -21q78 90 78 180zM198 159q0 55 -22 100q-18 37 -60 84l-68 -18q79 -78 79 -168q0 -68 -74 -157l68 -21q77 91 77 180z" />
    <glyph glyph-name="multiply" unicode="&#xd7;" horiz-adv-x="517" 
d="M468 75l-143 143l143 143l-66 67l-143 -144l-143 144l-67 -67l143 -143l-143 -143l67 -66l143 143l143 -143z" />
    <glyph glyph-name="divide" unicode="&#xf7;" horiz-adv-x="517" 
d="M321 385q0 26 -18.5 44t-43.5 18q-26 0 -44 -18t-18 -44t18 -44t44 -18q25 0 43.5 18t18.5 44zM476 171v94h-436v-94h436zM321 51q0 26 -18.5 44t-43.5 18q-26 0 -44 -18t-18 -44t18 -44t44 -18q25 0 43.5 18t18.5 44z" />
    <glyph glyph-name="commaarabic" unicode="&#x60c;" horiz-adv-x="222" 
d="M172 253h-34q-94 -87 -94 -145v-109h98v97q-17 -2 -25 6.5t-8 27.5q-1 64 63 123z" />
    <glyph glyph-name="semicolonarabic" unicode="&#x61b;" horiz-adv-x="233" 
d="M183 429h-35q-94 -87 -94 -145v-108h99v96q-16 -1 -24.5 7.5t-9.5 26.5q-1 64 64 123zM151 -1v98h-94v-98h94z" />
    <glyph glyph-name="questionarabic" unicode="&#x61f;" horiz-adv-x="415" 
d="M375 535q-84 84 -172 84q-75 0 -131 -48q-57 -51 -57 -127q0 -64 41 -108l78 -63q43 -34 43 -78v-49h93v45q0 68 -40 114q-7 9 -75 67q-39 33 -39 67q0 41 33 64q26 18 55 18q62 0 109 -54zM270 -1v98h-94v-98h94z" />
    <glyph glyph-name="tatweelarabic" unicode="&#x640;" horiz-adv-x="212" 
d="M221 97h-231v-97h231v97z" />
    <glyph glyph-name="maddaabove" unicode="&#x653;" 
d="M271 795h-39q-3 -35 -39 -35q-10 0 -49 14q-37 14 -59 14q-29 0 -48 -22.5t-23 -57.5h36q6 34 35 34q14 0 51 -14q35 -13 57 -13q33 0 55 25q18 18 23 55z" />
    <glyph glyph-name="hamzaabove" unicode="&#x654;" 
d="M206 708v49h-33q-19 0 -29 7.5t-9 21.5q1 11 5.5 16.5t14.5 4.5q13 -1 25 -13l24 37q-22 28 -53 28q-28 0 -47 -20.5t-19 -50.5q0 -18 9 -31h-43l-23 -49h178z" />
    <glyph glyph-name="hamzabelow" unicode="&#x655;" 
d="M206 -209v49h-33q-19 0 -29 7.5t-9 21.5q1 11 5.5 16.5t14.5 4.5q13 -2 25 -13l24 37q-22 28 -53 28q-28 0 -47 -20.5t-19 -50.5q0 -17 9 -31h-43l-23 -49h178z" />
    <glyph glyph-name="zeroarabic" unicode="&#x660;" horiz-adv-x="295" 
d="M207 119v138l-119 -52v-138z" />
    <glyph glyph-name="onearabic" unicode="&#x661;" horiz-adv-x="240" 
d="M174 51l-4 568h-104l5 -619z" />
    <glyph glyph-name="twoarabic" unicode="&#x662;" horiz-adv-x="480" 
d="M414 533v87h-152q-102 0 -147 -42q-50 -44 -48 -146l6 -432l104 53q-4 283 -4 324q-1 86 28 122q28 34 110 34h103z" />
    <glyph glyph-name="threearabic" unicode="&#x663;" horiz-adv-x="551" 
d="M485 448q0 32 -2 172h-88q1 -56 1 -125q1 -31 -1 -47q-4 -31 -25 -31t-40 23q0 40 -2 180h-89q2 -112 2 -125q1 -31 -1 -47q-4 -31 -25 -31q-7 0 -12 1.5t-10 4.5t-7 5l-6.5 6.5l-5.5 5.5l-3 179h-105l5 -620l105 54l-2 293h1q23 -24 60 -24q60 0 75 45q28 -43 82 -43
q53 0 74 38q19 34 19 86z" />
    <glyph glyph-name="fourarabic" unicode="&#x664;" horiz-adv-x="464" 
d="M398 97q-66 1 -100 0q-43 -1 -77 14q-47 23 -48 75q-1 73 55 103q42 21 130 21q0 90 -1 91q-55 -6 -71 -6q-92 0 -93 58q-1 35 20.5 55t64.5 25q35 4 80 1v86q-17 4 -48 4q-32 0 -59 -4q-73 -10 -121 -60q-47 -50 -47 -114q0 -47 31 -78q26 -26 41 -23q-89 -48 -88 -163
q0 -79 58 -131t154 -52q55 0 62 1z" />
    <glyph glyph-name="fivearabic" unicode="&#x665;" horiz-adv-x="506" 
d="M440 248q0 63 -45 132q-53 84 -144 121q-87 -35 -140 -119q-45 -70 -45 -134q0 -77 42.5 -126.5t111.5 -55.5q18 -5 62 0q70 6 113 57q45 51 45 125zM340 263q0 -41 -21 -66q-18 -25 -45 -29q-28 -4 -43 0q-27 4 -45 29q-20 27 -19 66q0 37 27 77q27 42 59 57
q30 -13 59 -57q28 -41 28 -77z" />
    <glyph glyph-name="sixarabic" unicode="&#x666;" horiz-adv-x="480" 
d="M414 53q-2 362 -3 383q-2 103 -50 144q-46 40 -149 40h-146v-87h87q85 0 117 -31q36 -34 37 -121l2 -381z" />
    <glyph glyph-name="sevenarabic" unicode="&#x667;" horiz-adv-x="552" 
d="M486 546l-85 76l-125 -423l-125 423l-85 -76l160 -545h100z" />
    <glyph glyph-name="eightarabic" unicode="&#x668;" horiz-adv-x="552" 
d="M486 78l-160 544h-100l-160 -544l85 -77l125 422l125 -422z" />
    <glyph glyph-name="ninearabic" unicode="&#x669;" horiz-adv-x="514" 
d="M448 51l-1 330q-1 241 -199 241q-75 0 -129 -54q-53 -55 -53 -129q0 -83 45.5 -131.5t126.5 -50.5q57 -1 106 38l2 -295zM334 434q0 -30 -21 -56q-23 -27 -58 -27q-33 -1 -57.5 23.5t-24.5 59.5q-1 43 21 68.5t61 25.5q36 0 57.5 -26.5t21.5 -67.5z" />
    <glyph glyph-name="percentarabic" unicode="&#x66a;" horiz-adv-x="505" 
d="M253 490v103h-99v-103h99zM490 581l-84 57l-379 -629l84 -57zM362 12v104h-99v-104h99z" />
    <glyph glyph-name="decimalseparatorarabic" unicode="&#x66b;" horiz-adv-x="166" 
d="M4 -123h34q94 87 94 145v108h-98v-97q33 3 33 -33q1 -64 -63 -123z" />
    <glyph glyph-name="thousandsseparatorarabic" unicode="&#x66c;" horiz-adv-x="166" 
d="M4 -123h34q94 87 94 145v108h-98v-97q33 3 33 -33q1 -64 -63 -123z" />
    <glyph glyph-name="asteriskarabic" unicode="&#x66d;" horiz-adv-x="500" 
d="M447 245l-9 20l-138 -20l-38 143h-20l-39 -143l-138 21l-9 -21l117 -93l-52 -139l17 -13l114 94l113 -94l17 15l-51 138z" />
    <glyph glyph-name="superscriptalef" unicode="&#x670;" 
d="M23 714h44v204h-44v-204z" />
    <glyph glyph-name="extendedarabicindicdigitzero" unicode="&#x6f0;" horiz-adv-x="295" 
d="M207 119v138l-119 -52v-138z" />
    <glyph glyph-name="extendedarabicindicdigitone" unicode="&#x6f1;" horiz-adv-x="240" 
d="M174 51l-4 568h-104l5 -619z" />
    <glyph glyph-name="extendedarabicindicdigittwo" unicode="&#x6f2;" horiz-adv-x="480" 
d="M414 533v87h-152q-102 0 -147 -42q-50 -44 -48 -146l6 -432l104 53q-4 283 -4 324q-1 86 28 122q28 34 110 34h103z" />
    <glyph glyph-name="extendedarabicindicdigitthree" unicode="&#x6f3;" horiz-adv-x="551" 
d="M485 448q0 32 -2 172h-88q1 -56 1 -125q1 -31 -1 -47q-4 -31 -25 -31t-40 23q0 40 -2 180h-89q2 -112 2 -125q1 -31 -1 -47q-4 -31 -25 -31q-7 0 -12 1.5t-10 4.5t-7 5l-6.5 6.5l-5.5 5.5l-3 179h-105l5 -620l105 54l-2 293h1q23 -24 60 -24q60 0 75 45q28 -43 82 -43
q53 0 74 38q19 34 19 86z" />
    <glyph glyph-name="extendedarabicindicdigitfour" unicode="&#x6f4;" horiz-adv-x="464" 
d="M398 97q-66 1 -100 0q-43 -1 -77 14q-47 23 -48 75q-1 73 55 103q42 21 130 21q0 90 -1 91q-55 -6 -71 -6q-92 0 -93 58q-1 35 20.5 55t64.5 25q35 4 80 1v86q-17 4 -48 4q-32 0 -59 -4q-73 -10 -121 -60q-47 -50 -47 -114q0 -47 31 -78q26 -26 41 -23q-89 -48 -88 -163
q0 -79 58 -131t154 -52q55 0 62 1z" />
    <glyph glyph-name="extendedarabicindicdigitfive" unicode="&#x6f5;" horiz-adv-x="506" 
d="M440 248q0 63 -45 132q-53 84 -144 121q-87 -35 -140 -119q-45 -70 -45 -134q0 -77 42.5 -126.5t111.5 -55.5q18 -5 62 0q70 6 113 57q45 51 45 125zM340 263q0 -41 -21 -66q-18 -25 -45 -29q-28 -4 -43 0q-27 4 -45 29q-20 27 -19 66q0 37 27 77q27 42 59 57
q30 -13 59 -57q28 -41 28 -77z" />
    <glyph glyph-name="extendedarabicindicdigitsix" unicode="&#x6f6;" horiz-adv-x="480" 
d="M414 53q-2 362 -3 383q-2 103 -50 144q-46 40 -149 40h-146v-87h87q85 0 117 -31q36 -34 37 -121l2 -381z" />
    <glyph glyph-name="extendedarabicindicdigitseven" unicode="&#x6f7;" horiz-adv-x="552" 
d="M486 546l-85 76l-125 -423l-125 423l-85 -76l160 -545h100z" />
    <glyph glyph-name="extendedarabicindicdigiteight" unicode="&#x6f8;" horiz-adv-x="552" 
d="M486 78l-160 544h-100l-160 -544l85 -77l125 422l125 -422z" />
    <glyph glyph-name="extendedarabicindicdigitnine" unicode="&#x6f9;" horiz-adv-x="514" 
d="M448 51l-1 330q-1 241 -199 241q-75 0 -129 -54q-53 -55 -53 -129q0 -83 45.5 -131.5t126.5 -50.5q57 -1 106 38l2 -295zM334 434q0 -30 -21 -56q-23 -27 -58 -27q-33 -1 -57.5 23.5t-24.5 59.5q-1 43 21 68.5t61 25.5q36 0 57.5 -26.5t21.5 -67.5z" />
    <glyph glyph-name="zeronojoin" unicode="&#x200c;" horiz-adv-x="20" 
d="M20 0v722h-20v-722h20z" />
    <glyph glyph-name="zerojoin" unicode="&#x200d;" horiz-adv-x="20" 
d="M71 663l-47 48l47 47l-14 14l-47 -48l-47 48l-14 -14l48 -47l-48 -48l14 -13l37 37v-687h20v687l37 -37z" />
    <glyph glyph-name="lefttoright" unicode="&#x200e;" horiz-adv-x="20" 
d="M134 711l-60 61l-14 -14l36 -36h-96v-722h20v702h78l-38 -38l14 -14z" />
    <glyph glyph-name="righttoleft" unicode="&#x200f;" horiz-adv-x="20" 
d="M20 0v722h-96l36 36l-14 14l-60 -61l60 -61l14 14l-38 38h78v-702h20z" />
    <glyph glyph-name="hyphenminus" unicode="&#x2010;" horiz-adv-x="454" 
d="M24 192h421v39h-421v-39z" />
    <glyph glyph-name="quotedblleft" unicode="&#x201c;" horiz-adv-x="281" 
d="M283 711h-35q-93 -85 -93 -146v-107h98v96q-16 -1 -24.5 7.5t-9.5 26.5q-1 64 64 123zM155 711h-34q-93 -85 -93 -146q0 -28 -1 -50v-57h98v96q-16 -1 -24.5 7.5t-9.5 26.5q0 65 64 123z" />
    <glyph glyph-name="quotedblright" unicode="&#x201d;" horiz-adv-x="281" 
d="M257 603v108h-98v-97q17 2 25 -6.5t8 -27.5q1 -64 -63 -122h35q93 85 93 145zM129 603v108h-97v-97q16 2 24 -6.5t9 -27.5q1 -64 -63 -122h33q94 85 94 145z" />
    <glyph glyph-name="delete" unicode="&#x2421;" horiz-adv-x="709" 
d="M674 57v31h-127v229h-36v-260h163zM479 57v31h-159v88h143v31h-143v79h153v31h-189v-260h195zM253 189q0 106 -79 124q-13 4 -46 4h-90v-260h95q21 0 41 5q79 19 79 127zM218 189q0 -55 -26 -83q-20 -18 -63 -18h-56v198h55q29 0 44 -5q46 -18 46 -92z" />
    <glyph glyph-name="ornateleftparenthesis" unicode="&#xfd3e;" horiz-adv-x="342" 
d="M285 588l-96 40q-84 -94 -121 -170q-46 -92 -46 -203q0 -181 157 -362l98 40q-149 176 -149 316q0 92 45 185q42 84 112 154z" />
    <glyph glyph-name="ornaterightparenthesis" unicode="&#xfd3f;" horiz-adv-x="342" 
d="M320 255q0 111 -46 203q-37 76 -121 170l-96 -40q73 -73 112 -154q46 -92 46 -185q0 -140 -149 -316l97 -40q157 181 157 362z" />
    <glyph glyph-name="zerowidthnobreakspace" unicode="&#xfeff;" 
 />
    <glyph glyph-name="CR" horiz-adv-x="333" 
 />
    <glyph glyph-name="_4" horiz-adv-x="280" 
 />
    <glyph glyph-name="_13" horiz-adv-x="273" 
 />
    <glyph glyph-name="kashidaautoarabic" horiz-adv-x="119" 
d="M128 0v97h-138v-97h138z" />
    <glyph glyph-name="nonbreakingspace" horiz-adv-x="623" 
 />
    <glyph glyph-name="_246" 
 />
    </font>
</defs>
</svg>
